<?xml version="1.0" encoding="UTF-8"?>
<!DOCTYPE svg PUBLIC "-//W3C//DTD SVG 1.1//EN" "http://www.w3.org/Graphics/SVG/1.1/DTD/svg11.dtd">
<!-- Creator: CorelDRAW 2020 (64 Bit Versão de avaliação) -->
<svg xmlns="http://www.w3.org/2000/svg" xml:space="preserve" width="60mm" height="60mm" version="1.1" style="shape-rendering:geometricPrecision; text-rendering:geometricPrecision; image-rendering:optimizeQuality; fill-rule:evenodd; clip-rule:evenodd"
viewBox="0 0 6000 6000"
 xmlns:xlink="http://www.w3.org/1999/xlink"
 xmlns:xodm="http://www.corel.com/coreldraw/odm/2003">
 <defs>
  <style type="text/css">
   <![CDATA[
    .str1 {stroke:#0C0B0B;stroke-width:105.83;stroke-miterlimit:22.9256}
    .str4 {stroke:#373435;stroke-width:70.56;stroke-miterlimit:22.9256}
    .str0 {stroke:#0C0B0B;stroke-width:52.92;stroke-miterlimit:22.9256}
    .str3 {stroke:#0C0B0B;stroke-width:79.38;stroke-linecap:round;stroke-miterlimit:22.9256}
    .str2 {stroke:#0C0B0B;stroke-width:52.92;stroke-linecap:round;stroke-miterlimit:22.9256}
    .fil3 {fill:none}
    .fil2 {fill:none;fill-rule:nonzero}
    .fil0 {fill:#FEFEFE}
    .fil4 {fill:#282829}
    .fil1 {fill:#0C0B0B;fill-rule:nonzero}
   ]]>
  </style>
   <clipPath id="id0">
    <path d="M2994.33 59.98c1626.86,0 2945.69,1318.83 2945.69,2945.69 0,1626.86 -1318.83,2945.69 -2945.69,2945.69 -1626.86,0 -2945.69,-1318.83 -2945.69,-2945.69 0,-1626.86 1318.83,-2945.69 2945.69,-2945.69z"/>
   </clipPath>
    <clipPath id="id1">
     <path d="M1629.08 5616.32l2730.5 0c139.75,-73.24 272.99,-157.21 398.41,-251.09l0 -4544.43 -3739.3 0c-267.43,241.97 -490.13,532.37 -654.49,857.32l0 2655.1c277.36,548.32 721.09,998.13 1264.88,1283.1z"/>
    </clipPath>
    <clipPath id="id2">
     <path d="M2994.33 59.98c1626.86,0 2945.69,1318.83 2945.69,2945.69 0,1626.86 -1318.83,2945.69 -2945.69,2945.69 -1626.86,0 -2945.69,-1318.83 -2945.69,-2945.69 0,-1626.86 1318.83,-2945.69 2945.69,-2945.69z"/>
    </clipPath>
 </defs>
 <g id="Camada_x0020_1">
  <metadata id="CorelCorpID_0Corel-Layer"/>
  <path class="fil0" d="M2994.33 59.98c1626.86,0 2945.69,1318.83 2945.69,2945.69 0,1626.86 -1318.83,2945.69 -2945.69,2945.69 -1626.86,0 -2945.69,-1318.83 -2945.69,-2945.69 0,-1626.86 1318.83,-2945.69 2945.69,-2945.69z"/>
  <g style="clip-path:url(#id0)">
   <g id="_1896220881232">
    <g>
    </g>
   </g>
   <g style="clip-path:url(#id1)">
    <g id="_1896220890976">
     <path id="1" class="fil1" d="M2716.46 1324.44c153.36,410.08 655.28,348.37 995.87,260.77 81.67,-21.89 165.33,-45.79 239.02,-87.59 73.69,-41.8 135.43,-109.49 159.33,-191.09 25.88,-91.58 -3.99,-193.1 -55.77,-272.73 -47.8,-73.66 -117.52,-151.29 -191.22,-199.07 -31.85,81.62 -145.4,87.6 -223.08,87.6 -109.54,0 -209.11,-41.81 -310.7,-71.67 -103.57,-29.86 -215.11,-35.83 -318.68,-7.97 -209.13,49.77 -376.44,262.77 -294.77,481.75z"/>
     <path class="fil1" d="M3029.15 4069.58c-5.97,0 -7.96,0 -11.95,1.98l11.95 -1.98z"/>
     <path class="fil1" d="M3029.15 4069.58c-5.97,0 -7.96,0 -11.95,1.98l11.95 -1.98z"/>
     <path class="fil2 str0" d="M2586.99 2072.93l0 -384.2c0,-326.47 304.75,-593.22 677.19,-593.22 185.24,0 354.54,65.69 478.02,173.19 123.5,107.5 199.18,254.8 199.18,418.04l0 384.2"/>
     <path class="fil2 str0" d="M3941.38 2488.98l0 443.92c0,326.47 -304.73,593.22 -677.2,593.22 -372.44,0 -677.19,-266.75 -677.19,-593.22l0 -443.92"/>
     <path class="fil2 str0" d="M2861.86 2626.33c190.29,0 344.58,-154.18 344.58,-344.38 0,-190.2 -154.29,-344.39 -344.58,-344.39 -190.31,0 -344.58,154.19 -344.58,344.39 0,190.2 154.27,344.38 344.58,344.38z"/>
     <path class="fil2 str0" d="M3664.52 2626.33c190.32,0 344.58,-154.18 344.58,-344.38 0,-190.2 -154.26,-344.39 -344.58,-344.39 -190.29,0 -344.57,154.19 -344.57,344.39 0,190.2 154.28,344.38 344.57,344.38z"/>
     <line class="fil2 str1" x1="3204.42" y1="2272" x2="3323.93" y2= "2272" />
     <polyline class="fil2 str0" points="3541.04,3472.37 3543.03,3472.37 3543.03,4095.44 "/>
     <line class="fil2 str0" x1="3045.1" y1="4087.48" x2="3045.1" y2= "3488.29" />
     <path class="fil1" d="M2861.86 2361.58c43.99,0 79.67,-35.65 79.67,-79.63 0,-43.98 -35.68,-79.62 -79.67,-79.62 -44.01,0 -79.68,35.64 -79.68,79.62 0,43.98 35.67,79.63 79.68,79.63z"/>
     <path class="fil1" d="M3664.52 2361.58c44.01,0 79.66,-35.65 79.66,-79.63 0,-43.98 -35.65,-79.62 -79.66,-79.62 -43.99,0 -79.67,35.64 -79.67,79.62 0,43.98 35.68,79.63 79.67,79.63z"/>
     <path class="fil2 str0" d="M2541.18 2411.34l-39.84 0c-43.81,0 -83.65,17.92 -113.52,45.79 -27.89,29.86 -45.81,69.67 -45.81,113.46 0,87.6 71.7,159.26 159.33,159.26l79.68 0"/>
     <path class="fil2 str0" d="M3985.19 2411.34l39.85 0c87.63,0 159.33,71.67 159.33,159.25 0,43.81 -17.93,83.61 -47.81,113.48 -27.86,27.87 -67.71,45.78 -111.52,45.78l-79.67 0"/>
     <path class="fil1" d="M2583.01 2522.82l0 95.55 -63.74 0c-25.89,0 -47.8,-21.9 -47.8,-47.78 0,-13.93 5.98,-25.87 13.94,-33.84 7.97,-7.96 19.92,-13.93 33.86,-13.93l63.74 0z"/>
     <path class="fil1" d="M3945.37 2618.37l0 -95.55 63.73 0c25.9,0 47.8,21.9 47.8,47.77 0,13.94 -5.98,25.88 -13.93,33.85 -7.97,7.96 -19.91,13.93 -33.87,13.93l-63.73 0z"/>
     <path class="fil2 str2" d="M3264.18 2610.41c0,0 -99.57,159.25 59.75,119.44"/>
     <path class="fil2 str2" d="M3084.94 3070.26c0,0 159.33,197.08 378.42,0"/>
     <path class="fil2 str3" d="M2706.49 1873.86c0,0 109.55,-109.48 298.76,-19.9"/>
     <path class="fil2 str3" d="M3821.87 1873.86c0,0 -109.54,-109.48 -298.75,-19.9"/>
     <path class="fil1" d="M2583.01 1646.93c0,0 -274.86,-213.01 -155.36,-471.79 119.51,-258.79 497.94,-119.44 497.94,-119.44 0,0 151.36,644.98 -342.58,591.23z"/>
     <path class="fil2 str0" d="M1216.66 3237.49c-23.9,-77.64 -57.76,-115.46 -75.68,-228.93 -37.85,-226.93 -23.9,-443.92 -117.51,-435.95 -37.85,3.97 -49.8,43.79 -47.81,65.69l29.88 358.32c-11.95,41.8 -33.86,25.88 -33.86,25.88 0,0 -77.68,-318.51 -87.64,-376.24 -9.95,-55.74 -37.84,-87.59 -75.69,-83.61 -65.72,5.97 -39.82,85.6 -33.86,115.46l69.71 386.19c5.98,37.82 -33.85,25.88 -33.85,25.88l-155.36 -386.19c-17.92,-41.8 -51.78,-31.85 -51.78,-31.85 -61.75,13.93 -37.84,69.67 -37.84,69.67l133.44 410.08c0,1.99 0,3.98 0,5.97 1.99,21.9 -25.89,33.84 -37.85,13.94 -41.82,-63.71 -123.48,-165.23 -191.2,-205.04 -33.86,-19.91 -57.76,-15.93 -71.7,-5.98 -13.95,9.95 -15.93,27.87 -5.98,41.81l248.96 360.31c57.77,382.21 290.81,427.99 290.81,427.99l139.42 545.46 205.15 859.95 25.89 109.49c23.9,105.5 119.51,181.15 227.06,181.15l109.54 0c77.69,0 131.46,-75.65 107.56,-147.3l-495.95 -1508.94 -21.91 -131.39c47.81,-53.73 79.67,-167.21 95.61,-248.83 9.96,-43.79 13.94,-89.56 9.96,-133.36 -7.97,-109.49 65.72,-306.57 65.72,-306.57 -5.97,-37.82 -77.68,-5.97 -77.68,-5.97 -79.66,27.86 -99.58,155.27 -105.56,224.94 -1.99,29.86 -15.93,55.74 -35.85,75.65 -119.5,117.44 -129.46,248.82 -129.46,248.82"/>
     <path class="fil2 str0" d="M882.05 2648.24c-9.96,-55.74 -27.88,-97.55 -75.68,-83.62 -63.74,17.92 -39.84,85.6 -33.87,115.46"/>
     <path class="fil1" d="M4757.99 5596.41l0 19.91 -434.2 0 -91.61 -507.62 0 507.62 -1880.22 0 0 -288.63c0,-69.68 0,-139.35 1.99,-209.02 -41.82,33.82 -87.63,61.69 -141.41,91.56l-416.27 278.69c-1.99,1.99 -3.99,1.99 -5.98,3.97 -17.93,9.97 -37.84,15.94 -59.75,15.94l-86.57 3.27c0,0 92.54,-35.12 114.45,-122.73l-149.38 -497.65c213.12,-177.18 557.69,-688.77 1218.95,-794.28 27.89,-5.97 57.77,-11.94 89.63,-15.94 29.88,-3.97 59.76,-7.95 93.61,-9.94l21.91 -1.98 0 3.97 -11.95 2c4,0 5.98,0 9.97,-2l1.98 0c3.99,0 7.96,0 11.96,-1.99l1.98 0 19.94 -1.98 0 75.64c0,9.95 3.96,21.9 13.93,31.84 29.88,33.85 97.59,59.73 179.26,65.7 13.94,2 27.87,2 41.81,2 2,0 3.99,0 3.99,0l1.98 0c79.69,-2 153.39,-23.89 191.22,-55.74 11.95,-9.95 23.91,-23.88 23.91,-43.8l0 -69.67 19.91 3.97 3.99 0c5.97,0 9.96,1.98 15.94,1.98l0 -5.95 25.89 3.97c730.97,89.59 1169.14,656.93 1169.14,1516.89z"/>
     <path class="fil1" d="M1794.28 5486.91l-5.98 4c1.99,0 3.98,-1.99 5.98,-4z"/>
    </g>
   </g>
   <g style="clip-path:url(#id2)">
    <polygon class="fil3" points="364.2,5616.32 4757.99,5616.32 4757.99,820.8 364.2,820.8 "/>
    <polygon class="fil4" points="2324.04,6294.08 4237.86,6294.08 4232.34,5606.32 2351.61,5606.32 "/>
   </g>
  </g>
  <path class="fil3 str4" d="M2994.33 59.98c1626.86,0 2945.69,1318.83 2945.69,2945.69 0,1626.86 -1318.83,2945.69 -2945.69,2945.69 -1626.86,0 -2945.69,-1318.83 -2945.69,-2945.69 0,-1626.86 1318.83,-2945.69 2945.69,-2945.69z"/>
 </g>
</svg>
