<svg width="40" height="41" viewBox="0 0 40 41" fill="none" xmlns="http://www.w3.org/2000/svg">
<rect x="1" y="39.1696" width="38" height="38" rx="19" transform="rotate(-90 1 39.1696)" stroke="#0C0B0B" stroke-width="2"/>
<path d="M25.3333 19.9427H26.5404L25.6869 19.0892L22.2765 15.6788L21.9229 16.0324L22.2765 15.6788C22.1879 15.5902 22.1879 15.4467 22.2765 15.3582C22.365 15.2697 22.5086 15.2697 22.5971 15.3582L27.2481 20.0091C27.3367 20.0977 27.3367 20.2412 27.2481 20.3298L27.6017 20.6833L27.2481 20.3298L22.5974 24.9806C22.5529 25.0251 22.4956 25.0471 22.4369 25.0471C22.3783 25.0471 22.321 25.0251 22.2766 24.9807C22.188 24.8922 22.188 24.7487 22.2766 24.6601L22.2766 24.6601L25.6869 21.2497L26.5404 20.3962H25.3333H12.9121C12.7869 20.3962 12.6854 20.2946 12.6854 20.1695C12.6854 20.0443 12.7869 19.9427 12.9121 19.9427H25.3333Z" fill="#0C0B0B" stroke="#0C0B0B"/>
</svg>
