<svg width="41" height="41" viewBox="0 0 41 41" fill="none" xmlns="http://www.w3.org/2000/svg">
<rect x="39.8994" y="1.16959" width="38" height="38" rx="19" transform="rotate(90 39.8994 1.16959)" stroke="#0C0B0B" stroke-width="2"/>
<path d="M15.5661 20.3964L14.359 20.3964L15.2125 21.25L18.6229 24.6604L18.9765 24.3068L18.6229 24.6604C18.7115 24.7489 18.7115 24.8925 18.6229 24.981C18.5344 25.0695 18.3908 25.0695 18.3023 24.981L13.6513 20.33C13.5627 20.2415 13.5627 20.098 13.6513 20.0094L13.2978 19.6558L13.6513 20.0094L18.302 15.3586C18.3466 15.3141 18.4038 15.292 18.4625 15.292C18.5212 15.292 18.5784 15.3141 18.6228 15.3584C18.7114 15.447 18.7114 15.5905 18.6228 15.6791L18.6228 15.6791L15.2125 19.0895L14.359 19.943L15.5661 19.943L27.9873 19.943C28.1125 19.943 28.214 20.0446 28.214 20.1697C28.214 20.2949 28.1125 20.3964 27.9873 20.3964L15.5661 20.3964Z" fill="#0C0B0B" stroke="#0C0B0B"/>
</svg>
