<?xml version="1.0" encoding="UTF-8"?>
<!DOCTYPE svg PUBLIC "-//W3C//DTD SVG 1.1//EN" "http://www.w3.org/Graphics/SVG/1.1/DTD/svg11.dtd">
<!-- Creator: CorelDRAW 2020 (64 Bit Versão de avaliação) -->
<svg xmlns="http://www.w3.org/2000/svg" xml:space="preserve" width="2.321mm" height="1.534mm" version="1.1" style="shape-rendering:geometricPrecision; text-rendering:geometricPrecision; image-rendering:optimizeQuality; fill-rule:evenodd; clip-rule:evenodd"
viewBox="0 0 232.1 153.4"
 xmlns:xlink="http://www.w3.org/1999/xlink"
 xmlns:xodm="http://www.corel.com/coreldraw/odm/2003">
 <defs>
  <style type="text/css">
   <![CDATA[
    .str0 {stroke:#0C0B0B;stroke-width:13.23;stroke-miterlimit:22.9256}
    .fil0 {fill:#0C0B0B;fill-rule:nonzero}
   ]]>
  </style>
 </defs>
 <g id="Camada_x0020_1">
  <metadata id="CorelCorpID_0Corel-Layer"/>
  <path class="fil0 str0" d="M104.87 36.58l-78.76 78.77c-4.81,4.8 -4.81,12.6 0,17.4 4.8,4.81 12.59,4.81 17.4,0l57.76 -57.75c0,0 5.81,-6.51 12.26,-6.38 6.29,0.14 12.35,6.38 12.35,6.38l57.76 57.75c4.81,4.81 12.6,4.81 17.41,0 2.4,-2.4 3.6,-5.55 3.6,-8.7 0,-3.15 -1.2,-6.3 -3.6,-8.7l-78.77 -78.77c-4.81,-4.81 -12.6,-4.81 -17.41,0z"/>
 </g>
</svg>
