<svg width="126" height="109" viewBox="0 0 126 109" fill="none" xmlns="http://www.w3.org/2000/svg">
<path d="M124.971 97.5634L115.542 49.0801C115.265 47.5887 113.954 46.5017 112.441 46.5017H107.323L106.869 43.7211C106.642 42.3561 105.584 41.2944 104.222 41.0922C103.97 41.0417 103.743 41.0164 103.491 40.9911C103.34 40.9658 103.163 40.9406 103.012 40.9406L101.802 40.7636L102.054 39.5755C102.709 36.5422 102.18 33.433 100.566 30.7788L100.264 30.2985L100.466 29.7677C101.272 27.6696 101.121 25.3187 100.062 23.347C99.0033 21.3753 97.1124 19.9598 94.919 19.4795L94.1878 19.3278L94.0618 18.5695C92.5491 10.4805 85.4898 4.56543 77.2959 4.51488C77.2203 4.51488 77.1194 4.51488 77.0438 4.54016C76.943 4.54016 76.8421 4.56543 76.7413 4.56543L76.0858 4.59071L75.7328 4.03459C74.4974 2.11346 72.5057 0.849558 70.2366 0.546221C67.9676 0.268163 65.7237 1.00123 64.0597 2.56847L63.4042 3.17514L62.6479 2.69486C60.4292 1.25401 57.8576 0.495666 55.2356 0.495666C50.9748 0.520944 47.0166 2.46735 44.3946 5.85461L43.9155 6.46129L43.1844 6.23378C40.3607 5.42489 37.3857 5.90517 34.9906 7.5988C32.5954 9.29243 31.1079 11.9466 30.9315 14.8789L30.881 15.5867L30.2255 15.8647C27.3514 17.0781 25.5109 19.8839 25.4857 22.9931C25.4857 23.524 25.5614 24.0548 25.6622 24.5857L25.7631 25.0659L25.4857 25.4704C22.7628 29.5907 22.0569 34.6716 23.5444 39.3733L23.9478 40.6625L22.6116 40.8394C22.3847 40.8647 22.1326 40.89 21.9056 40.9406C21.5779 40.9911 21.2249 41.0417 20.8972 41.067C19.5357 41.2692 18.4516 42.3309 18.2247 43.6959L17.7709 46.4765H12.7033C11.1906 46.4765 9.87963 47.5634 9.6023 49.0548L0.17309 97.5634C-0.129451 99.1306 0.273937 100.748 1.28241 101.987C2.29088 103.226 3.80359 103.933 5.39193 103.933H50.8992L51.2269 104.49C52.5884 106.739 57.1517 108.256 62.547 108.256C67.9171 108.256 72.4301 106.739 73.8167 104.49L74.1445 103.959H119.702C121.29 103.959 122.778 103.251 123.812 102.012C124.871 100.748 125.274 99.1306 124.971 97.5634ZM26.0152 28.8576L26.6707 27.2904L27.8556 28.5038C28.259 28.9335 28.738 29.2874 29.2423 29.616C29.7213 29.894 30.3264 29.7424 30.6289 29.2621C30.9063 28.8071 30.7802 28.251 30.3768 27.9224L30.3012 27.8718C28.133 26.5573 27.0741 23.9284 27.7548 21.4765C28.4355 19.0245 30.6793 17.3056 33.2005 17.3056H33.2257C34.9906 17.3056 36.6797 18.165 37.7386 19.6059C37.9403 19.8839 38.3185 20.0356 38.6715 20.0103C39.0244 19.9598 39.3522 19.7323 39.4783 19.4037C39.6295 19.075 39.5791 18.6959 39.3522 18.3925C38.0916 16.6989 36.1503 15.6119 34.0577 15.3844L32.7971 15.2581L33.0493 14.0194C33.8056 10.5058 36.9571 7.92741 40.5372 7.92741H40.5624H40.5876C40.8901 7.95269 41.1927 7.97797 41.4952 8.02853L42.8818 8.25603L42.3776 9.57049C42.2263 9.97494 42.0751 10.3794 41.9742 10.7838C41.8482 11.3147 42.1759 11.8455 42.7054 11.9972C43.2348 12.1236 43.7895 11.8202 43.9407 11.2894C44.2181 10.253 44.6215 9.26715 45.1761 8.30658C47.2687 4.76766 51.1261 2.56847 55.2104 2.54319C57.4795 2.54319 59.6477 3.2257 61.5386 4.46432L62.2949 4.9446L61.9924 5.77878C61.715 6.5624 61.5638 7.39658 61.5638 8.23075C61.5638 8.78687 62.0176 9.24187 62.5722 9.24187C63.1269 9.24187 63.5807 8.78687 63.5807 8.23075C63.5807 5.09627 66.1271 2.54319 69.2282 2.54319C72.3544 2.54319 74.9008 5.09627 74.9008 8.23075C74.9008 8.78687 75.3546 9.24187 75.9093 9.24187C76.4639 9.24187 76.9177 8.78687 76.9177 8.23075C76.9177 8.20547 76.9178 8.15492 76.8925 8.12964C76.8673 8.02853 76.8673 7.92741 76.8673 7.80102L76.7917 6.53712L78.0523 6.61296C84.6578 7.0174 90.3304 11.8202 91.8179 18.2914L92.07 19.3531L91.0363 19.6564C90.1539 19.9092 89.3472 20.3137 88.616 20.8698C88.3387 21.0973 88.1622 21.4512 88.2126 21.8051C88.2631 22.159 88.49 22.4876 88.8177 22.614C89.1455 22.7656 89.5489 22.7151 89.8262 22.4876C91.9692 20.8951 94.9694 21.0215 96.9611 22.7909C98.9529 24.5604 99.4571 27.5179 98.1461 29.8435C97.5662 30.8799 96.6838 31.6888 95.5997 32.1944C95.1963 32.3966 94.9694 32.8769 95.0702 33.3319C95.1711 33.7869 95.5745 34.1155 96.0535 34.1408C96.1796 34.1408 96.3308 34.1155 96.4821 34.0396C96.9611 33.8121 97.4401 33.5088 97.8687 33.1549L99.1041 32.1691L99.6336 33.6605C100.894 37.2247 100.113 41.1933 97.5914 43.9992L97.5158 44.075C94.4147 47.4623 89.3472 48.3723 85.2124 46.3248L85.1872 46.2995C84.7838 46.072 84.3804 45.8445 84.0023 45.5664L83.0946 44.9092L83.7501 43.9992C85.0864 42.1033 85.2881 39.6514 84.2292 37.5786C84.0779 37.25 83.7501 37.0477 83.372 37.0225C83.019 36.9972 82.666 37.1741 82.4643 37.4775C82.2626 37.7808 82.2374 38.1853 82.4139 38.4886C83.372 40.4097 82.7669 42.7859 81.0021 43.9992C79.9432 44.707 78.6826 44.9092 77.4724 44.6059C76.2622 44.3025 75.2538 43.4936 74.6739 42.3814C74.4974 42.0275 74.1697 41.8253 73.8167 41.8C73.4637 41.7747 73.1108 41.9517 72.9091 42.255C72.7074 42.5584 72.6822 42.9375 72.8587 43.2661C73.9428 45.4401 76.111 46.8051 78.5313 46.8051H78.5565C79.3381 46.8051 80.0944 46.6534 80.8256 46.3501L81.4811 46.0973L82.0105 46.5523C82.7165 47.159 83.4728 47.6898 84.3048 48.1195C87.1285 49.5857 90.3556 49.889 93.3811 48.9537L96.6334 47.9679L94.6164 50.7232C92.2969 53.8829 88.8933 55.981 85.0359 56.613C84.5317 56.6888 84.1535 57.1691 84.1787 57.6999C84.2292 58.2308 84.6578 58.6352 85.1872 58.6352C85.2376 58.6352 85.2881 58.6352 85.3637 58.6352C86.5739 58.433 87.7588 58.0791 88.9186 57.5988L89.8514 57.1944L90.3556 58.0791C91.0616 59.3177 91.6162 60.6322 92.0448 61.9972C92.1457 62.3258 92.1961 62.6797 92.2213 63.0336C92.2213 64.4239 91.3893 65.6878 90.1287 66.2186L90.1035 66.2439C89.6749 66.3956 89.2463 66.4967 88.8177 66.4967C87.7588 66.4967 86.7504 66.0164 86.0444 65.1822C84.5065 63.3875 82.5148 62.0477 80.2709 61.34C75.758 59.8233 73.4133 58.3066 72.4048 56.2843L71.6737 54.8435L73.262 54.6413C74.3209 54.5149 75.3546 54.2874 76.3883 53.984C76.7161 53.8829 76.9934 53.6049 77.069 53.251C77.1447 52.8971 77.0438 52.5179 76.7665 52.2651C76.4892 52.0124 76.111 51.9365 75.7832 52.0376C74.4974 52.4421 73.1612 52.6696 71.7998 52.7707C69.2282 52.9729 66.5809 52.5685 64.1858 51.6079C63.7824 51.4562 63.3286 51.5573 63.0513 51.886C59.4964 55.981 53.5464 56.6635 49.1596 53.4785C44.7979 50.2934 43.5878 44.4037 46.3611 39.7525C46.5628 39.4492 46.5628 39.0447 46.3863 38.7161C46.2098 38.3875 45.882 38.1852 45.5039 38.1852C45.1509 38.1852 44.7979 38.3622 44.6215 38.6908C44.1676 39.4744 43.7895 40.3339 43.4869 41.2186L43.2348 42.0528L42.3524 42.0022C40.0833 41.8758 38.2681 40.0053 38.2177 37.705V37.6291C38.2177 37.3764 38.1168 37.0983 37.9151 36.9213C37.7386 36.7444 37.4613 36.6433 37.2092 36.6433C36.6293 36.6433 36.1755 37.1236 36.1755 37.6797C36.1755 40.9406 38.6211 43.6453 41.8482 43.9992L42.8566 44.1003V45.1114C42.8566 45.7687 42.9323 46.4259 43.0331 47.0831L43.2096 48.1448L42.1507 48.3723C36.9067 49.5098 31.5365 47.6392 28.1077 43.4936C24.7042 39.4492 23.8974 33.7869 26.0152 28.8576ZM50.874 101.861H5.39193C4.40867 101.861 3.47583 101.431 2.84554 100.647C2.21524 99.889 1.96313 98.9031 2.16482 97.9426L11.7705 48.524H17.4684L10.5099 90.5361C10.3334 91.6231 10.7368 92.71 11.5688 93.4431C12.4008 94.1761 13.5353 94.4037 14.5942 94.075C26.1916 90.3086 38.6715 89.525 50.6723 91.7747L51.6808 91.977L50.874 101.861ZM72.1275 103.428C71.2703 104.768 67.4633 106.183 62.5722 106.183C57.6812 106.183 53.8742 104.793 53.017 103.428L52.8153 103.099L53.6977 92.432L54.9835 92.7606C57.4038 93.3672 59.7737 94.1762 62.068 95.1367L62.1184 95.162C62.2445 95.2378 62.421 95.2631 62.5722 95.2631C62.7235 95.2631 62.8748 95.2378 63.0009 95.162L63.0513 95.1367C65.3455 94.1509 67.7407 93.342 70.1358 92.7353L71.4216 92.4067L72.304 103.099L72.1275 103.428ZM65.0682 92.1286L63.5807 92.6342V64.1205C63.5807 63.5897 63.2025 63.1094 62.6731 63.0589C62.068 63.0083 61.5386 63.4633 61.5386 64.07V92.6595L60.0511 92.1539C45.2013 87.1741 28.8389 87.1741 13.9891 92.1286C13.8631 92.1792 13.737 92.1792 13.6362 92.1792C12.9555 92.1792 12.4008 91.5725 12.5269 90.8647L20.4181 43.1903L21.2249 43.0639C22.0317 42.9375 22.8889 42.8364 23.6957 42.7353L25.0067 42.5584L25.3849 43.1903C29.1162 49.1559 36.2007 52.0376 43.0079 50.3693L43.8651 50.167L44.2685 50.9507C46.0585 54.3379 49.3613 56.7393 53.1178 57.3966C56.8744 58.0285 60.8074 56.8657 63.6059 54.2368L64.085 53.7818L64.7152 53.9588C66.1019 54.3632 67.5138 54.616 68.9508 54.7171L69.7576 54.7677L69.9593 55.5513C70.8921 59.0649 73.5646 61.2136 79.565 63.2358C81.4559 63.8172 83.1451 64.9547 84.4309 66.4714C85.515 67.7606 87.1033 68.5189 88.7673 68.5189C89.4984 68.5189 90.2044 68.3673 90.8599 68.0892C92.8768 67.2297 94.1878 65.2328 94.1878 63.0336C94.1878 62.4522 94.087 61.8961 93.9105 61.34C93.4567 59.8738 92.8264 58.4835 92.0952 57.1438L91.591 56.2591L92.423 55.6524C95.8518 53.1751 98.2469 49.5351 99.1293 45.3895L99.1798 45.1114L99.3562 44.8839C99.7848 44.3784 100.163 43.8475 100.491 43.2914L100.869 42.6595L102.079 42.8111C102.634 42.887 103.239 42.9628 103.819 43.0639L104.626 43.1903L112.517 90.8394C112.643 91.6736 111.836 92.3814 111.029 92.1034C103.592 89.6261 95.8014 88.3622 88.0109 88.3622C80.2961 88.4128 72.5057 89.6514 65.0682 92.1286ZM122.274 100.673C121.643 101.431 120.711 101.886 119.727 101.886H74.2705L73.4637 91.977L74.4722 91.7747C86.473 89.4997 98.9781 90.3086 110.575 94.1003C111.609 94.4289 112.744 94.1761 113.601 93.4431C114.433 92.71 114.836 91.6231 114.66 90.5361L107.701 48.5493H113.424L123.03 97.9679C123.156 98.9284 122.904 99.9143 122.274 100.673Z" fill="#0C0B0B"/>
</svg>
