<svg width="65" height="65" viewBox="0 0 65 65" fill="none" xmlns="http://www.w3.org/2000/svg">
<path d="M0.5 12.634C0.5 6.00662 5.87258 0.634033 12.5 0.634033H52.5C59.1274 0.634033 64.5 6.00662 64.5 12.634V52.634C64.5 59.2615 59.1274 64.634 52.5 64.634H12.5C5.87258 64.634 0.5 59.2615 0.5 52.634V12.634Z" fill="white"/>
<path d="M48.5 32.634C48.5 28.8535 47.1812 25.3758 44.9806 22.6347L36.9363 36.5679H48.0101C48.3296 35.3088 48.5 33.991 48.5 32.634Z" fill="#0C0B0B"/>
<path d="M38.125 30.759L43.6568 21.1776C40.7724 18.3679 36.8352 16.634 32.5 16.634C31.6761 16.634 30.8666 16.6967 30.0758 16.8175L38.125 30.759Z" fill="#0C0B0B"/>
<path d="M26.875 34.509L21.3432 44.0904C24.2276 46.9002 28.1648 48.634 32.5 48.634C33.324 48.634 34.1334 48.5713 34.9242 48.4507L26.875 34.509Z" fill="#0C0B0B"/>
<path d="M31.3113 38.4429L36.8483 48.0333C41.6842 46.6659 45.5965 43.0765 47.4082 38.4428L31.3113 38.4429Z" fill="#0C0B0B"/>
<path d="M33.6887 26.8252L28.1517 17.2347C23.3158 18.6022 19.4035 22.1915 17.5917 26.8252H33.6887Z" fill="#0C0B0B"/>
<path d="M26.0631 32.1653L28.0638 28.7002H16.9899C16.6704 29.9592 16.5 31.277 16.5 32.634C16.5 36.4145 17.8188 39.8923 20.0194 42.6334L26.0631 32.1653Z" fill="#0C0B0B"/>
</svg>
