<svg width="65" height="65" viewBox="0 0 65 65" fill="none" xmlns="http://www.w3.org/2000/svg">
<path d="M0.5 12.338C0.5 5.71054 5.87258 0.337952 12.5 0.337952H52.5C59.1274 0.337952 64.5 5.71054 64.5 12.338V52.338C64.5 58.9654 59.1274 64.338 52.5 64.338H12.5C5.87258 64.338 0.5 58.9654 0.5 52.338V12.338Z" fill="white"/>
<path d="M32.4999 48.3379C37.6193 48.3379 42.1731 45.9316 45.1016 42.1909H36.6747C35.5868 45.8172 34.9797 48.3379 32.4999 48.3379Z" fill="#C42126"/>
<path d="M31.551 48.3104C31.548 48.3104 31.5452 48.3099 31.5422 48.3099C31.5452 48.3099 31.5483 48.3104 31.551 48.3104Z" fill="#C42126"/>
<path d="M36.6747 22.485H45.1018C42.173 18.7448 37.6192 16.338 32.4999 16.338C34.9797 16.338 35.5868 18.8587 36.6747 22.485Z" fill="#C42126"/>
<path d="M31.5422 16.3665C31.5452 16.3665 31.548 16.3661 31.551 16.3661C31.5483 16.366 31.5452 16.366 31.5422 16.3665Z" fill="#C42126"/>
<path d="M45.102 22.485H36.6747C38.3754 28.1537 38.3754 36.523 36.6747 42.1908H45.1013C47.2284 39.4745 48.4999 36.0561 48.4999 32.3381C48.5002 28.6203 47.2286 25.2017 45.102 22.485Z" fill="#FFC40C"/>
<path d="M32.4999 48.3379C32.1816 48.3379 31.8653 48.3286 31.551 48.3104C31.8698 48.3281 32.1867 48.3379 32.4999 48.3379Z" fill="#C42126"/>
<path d="M31.551 16.366C31.8652 16.3473 32.1816 16.338 32.4999 16.338C32.1867 16.338 31.8698 16.3483 31.551 16.366Z" fill="#C42126"/>
<path d="M37.8515 42.1909H19.8986C22.643 45.6967 26.8155 48.0305 31.542 48.3099C31.5451 48.3099 31.5478 48.3104 31.5509 48.3104C31.8652 48.3286 32.1815 48.3379 32.4998 48.3379C34.9796 48.3379 36.7635 45.8172 37.8515 42.1909Z" fill="#D32030"/>
<path d="M19.8987 22.485H37.8516C36.7635 18.8587 34.9796 16.338 32.4999 16.338C32.1816 16.338 31.8653 16.3473 31.551 16.366C31.5479 16.366 31.5452 16.3665 31.5421 16.3665C26.8156 16.6457 22.643 18.9798 19.8987 22.485Z" fill="#D32030"/>
<path d="M16.5 32.3381C16.5 36.0561 17.7715 39.4745 19.8987 42.1908H37.8516C39.5524 36.5227 39.5524 28.1534 37.8516 22.485H19.8987C17.7715 25.2017 16.5 28.6203 16.5 32.3381Z" fill="#FFD034"/>
</svg>
