<svg width="65" height="64" viewBox="0 0 65 64" fill="none" xmlns="http://www.w3.org/2000/svg">
<path d="M0.5 12.001C0.5 5.37362 5.87258 0.0010376 12.5 0.0010376H52.5C59.1274 0.0010376 64.5 5.37362 64.5 12.001V52.001C64.5 58.6285 59.1274 64.001 52.5 64.001H12.5C5.87258 64.001 0.5 58.6285 0.5 52.001V12.001Z" fill="white"/>
<path d="M47.6474 21.1942L43.2838 16.8269C42.1844 15.7265 40.2717 15.7244 39.168 16.829L19.6197 36.5701C19.5331 36.6576 19.4705 36.7649 19.4364 36.8829L16.5274 47.0734C16.455 47.3271 16.526 47.6008 16.7128 47.7878C16.8513 47.9264 17.0366 48.001 17.227 48.001C17.2938 48.001 17.3613 47.9918 17.4266 47.9733L27.6084 45.0617C27.7263 45.0276 27.8335 44.965 27.9209 44.8783L47.6474 25.3113C48.1972 24.7611 48.4997 24.0303 48.4997 23.2527C48.4997 22.4751 48.1972 21.7443 47.6474 21.1942Z" fill="#0C0B0B"/>
<path d="M24.6945 38.7735L23.6914 36.7667C23.5678 36.5202 23.3164 36.3647 23.0408 36.3647H21.8761L35.9944 22.1194L38.6715 24.7964L24.6945 38.7735Z" fill="#FFCA28"/>
<path d="M27.7298 40.8051L25.7229 39.802L39.6999 25.825L42.377 28.502L28.1318 42.6203V41.4556C28.1318 41.1801 27.9762 40.9287 27.7298 40.8051Z" fill="#FFCA28"/>
<path d="M40.1942 17.8817C40.744 17.332 41.7013 17.332 42.251 17.8817L46.6147 22.2453C46.8895 22.5202 47.0408 22.8852 47.0408 23.2737C47.0408 23.6622 46.8895 24.0273 46.6168 24.3L43.41 27.4782L37.0182 21.0863L40.1942 17.8817Z" fill="#D32F2F"/>
<path d="M24.1744 40.655C24.1041 40.6199 23.8843 40.4 23.8491 40.3297L22.5956 37.8226H20.6844L19.0657 43.489L21.0943 45.416L26.6816 43.8198V41.9086L24.1744 40.655Z" fill="#F2F2F2"/>
<path d="M21.0942 45.416L19.0656 43.489L19.2332 42.9021L18.2859 46.2183L21.602 45.2709L21.0942 45.416Z" fill="#0C0B0B"/>
<path opacity="0.1" d="M26.6815 41.9087L24.1744 40.6551C24.1041 40.62 24.0667 40.5475 24.0118 40.4925L18.2859 46.2184L26.6815 43.8199V41.9087Z" fill="#0C0B0B"/>
<path opacity="0.1" d="M44.4372 20.067L40.2184 24.2858L43.4144 27.4817L46.6212 24.3036C46.8939 24.0308 47.0452 23.6658 47.0452 23.2773C47.0452 22.8888 46.8939 22.5237 46.6191 22.2489L44.4372 20.067Z" fill="#0C0B0B"/>
<path opacity="0.1" d="M27.7341 40.8085L25.7272 39.8054L39.7042 25.8284L42.3813 28.5055L28.1361 42.6237V41.4591C28.1361 41.1835 27.9805 40.9321 27.7341 40.8085Z" fill="#0C0B0B"/>
<path d="M47.6474 21.1942L43.2838 16.8269C42.1844 15.7265 40.2717 15.7244 39.168 16.829L19.6197 36.5701C19.5331 36.6576 19.4705 36.7649 19.4364 36.8829L16.5274 47.0734C16.455 47.3271 16.526 47.6008 16.7128 47.7878C16.8513 47.9264 17.0366 48.001 17.227 48.001C17.2938 48.001 17.3613 47.9918 17.4266 47.9733L27.6084 45.0617C27.7263 45.0276 27.8335 44.965 27.9209 44.8783L47.6474 25.3113C48.1972 24.7611 48.4997 24.0303 48.4997 23.2527C48.4997 22.4751 48.1972 21.7443 47.6474 21.1942Z" fill="url(#paint0_linear)"/>
<defs>
<linearGradient id="paint0_linear" x1="23.0913" y1="29.0226" x2="42.0045" y2="37.8383" gradientUnits="userSpaceOnUse">
<stop stop-color="white" stop-opacity="0.2"/>
<stop offset="1" stop-color="white" stop-opacity="0"/>
</linearGradient>
</defs>
</svg>
