<svg width="65" height="65" viewBox="0 0 65 65" fill="none" xmlns="http://www.w3.org/2000/svg">
<path d="M0.5 12.634C0.5 6.00662 5.87258 0.634033 12.5 0.634033H52.5C59.1274 0.634033 64.5 6.00662 64.5 12.634V52.634C64.5 59.2615 59.1274 64.634 52.5 64.634H12.5C5.87258 64.634 0.5 59.2615 0.5 52.634V12.634Z" fill="white"/>
<g clip-path="url(#clip0)">
<path d="M27.1668 48.634C30.1108 48.634 32.5005 46.2443 32.5005 43.3003V37.9665H27.1668C24.2228 37.9665 21.833 40.3563 21.833 43.3003C21.833 46.2443 24.2228 48.634 27.1668 48.634Z" fill="#0ACF83"/>
<path d="M21.833 32.634C21.833 29.69 24.2228 27.3003 27.1668 27.3003H32.5005V37.9664H27.1668C24.2228 37.9677 21.833 35.578 21.833 32.634Z" fill="#A259FF"/>
<path d="M21.833 21.9678C21.833 19.0238 24.2228 16.634 27.1668 16.634H32.5005V27.3003H27.1668C24.2228 27.3003 21.833 24.9118 21.833 21.9678Z" fill="#F24E1E"/>
<path d="M32.4992 16.634H37.833C40.777 16.634 43.1668 19.0238 43.1668 21.9678C43.1668 24.9118 40.777 27.3003 37.833 27.3003H32.4992V16.634Z" fill="#FF7262"/>
<path d="M43.1668 32.634C43.1668 35.578 40.777 37.9678 37.833 37.9678C34.889 37.9678 32.4992 35.578 32.4992 32.634C32.4992 29.69 34.889 27.3003 37.833 27.3003C40.777 27.3003 43.1668 29.69 43.1668 32.634Z" fill="#1ABCFE"/>
</g>
<defs>
<clipPath id="clip0">
<rect width="21.3338" height="32" fill="white" transform="translate(21.833 16.634)"/>
</clipPath>
</defs>
</svg>
