<svg width="65" height="59" viewBox="0 0 65 59" fill="none" xmlns="http://www.w3.org/2000/svg">
<path d="M0.5 12.634C0.5 6.00662 5.87258 0.634033 12.5 0.634033H52.5C59.1274 0.634033 64.5 6.00662 64.5 12.634V52.634C64.5 59.2615 59.1274 64.634 52.5 64.634H12.5C5.87258 64.634 0.5 59.2615 0.5 52.634V12.634Z" fill="white"/>
<path d="M43.0984 48.634H21.9018C18.6881 48.634 16.0898 46.0357 16.0898 42.8221V22.446C16.0898 19.2323 18.6881 16.634 21.9018 16.634H43.0984C46.3121 16.634 48.9104 19.2323 48.9104 22.446V42.8221C48.9104 46.0357 46.3121 48.634 43.0984 48.634Z" fill="#26C9FF"/>
<path d="M42.5787 47.2665H22.4215C19.6864 47.2665 17.4574 45.0375 17.4574 42.2887V22.9793C17.4574 20.2306 19.6864 18.0016 22.4215 18.0016H42.5651C45.3138 18.0016 47.5292 20.2306 47.5292 22.9657V42.2887C47.5428 45.0375 45.3138 47.2665 42.5787 47.2665Z" fill="#062026"/>
<path d="M24.0215 24.128C24.0215 24.0323 24.2129 23.9639 24.3223 23.9639C25.1975 23.9229 26.4967 23.8956 27.8505 23.8956C31.6385 23.8956 33.1155 25.9742 33.1155 28.6409C33.1155 32.1144 30.5992 33.605 27.5086 33.605C26.989 33.605 26.8112 33.5776 26.442 33.5776V38.8289C26.442 38.9383 26.4009 38.993 26.2779 38.993H24.1856C24.0762 38.993 24.0215 38.952 24.0215 38.8289V24.128ZM26.4556 31.3896C26.7702 31.4169 27.0163 31.4169 27.5633 31.4169C29.1633 31.4169 30.6676 30.8563 30.6676 28.6819C30.6676 26.9451 29.5873 26.0699 27.7685 26.0699C27.2215 26.0699 26.7018 26.0973 26.4556 26.111V31.3896ZM38.2163 29.7622C37.136 29.7622 36.7668 30.3092 36.7668 30.7605C36.7668 31.2528 37.0129 31.5947 38.4625 32.3469C40.6095 33.3862 41.2796 34.3845 41.2796 35.8477C41.2796 38.0357 39.6112 39.2118 37.3548 39.2118C36.165 39.2118 35.1394 38.9657 34.5514 38.6238C34.4556 38.5827 34.442 38.5144 34.442 38.405V36.3947C34.442 36.258 34.5103 36.2169 34.6061 36.2853C35.4676 36.846 36.4522 37.0922 37.3548 37.0922C38.4351 37.0922 38.8864 36.6409 38.8864 36.0255C38.8864 35.5332 38.5719 35.0956 37.1907 34.3845C35.2488 33.4545 34.442 32.511 34.442 30.9383C34.442 29.1742 35.8232 27.711 38.2163 27.711C39.3924 27.711 40.2129 27.8887 40.6642 28.0939C40.7736 28.1622 40.8009 28.2716 40.8009 28.3674V30.2409C40.8009 30.3503 40.7326 30.4186 40.5958 30.3776C39.9941 29.9947 39.1052 29.7622 38.2163 29.7622Z" fill="#D9F5FF"/>
</svg>
