<svg width="41" height="41" viewBox="0 0 41 41" fill="none" xmlns="http://www.w3.org/2000/svg">
<path d="M14.3384 17.8395C14.3384 18.3008 14.2157 18.7113 13.9702 19.071C13.729 19.4307 13.401 19.7121 12.9863 19.9152C13.4688 20.1225 13.8496 20.4251 14.1289 20.8229C14.4124 21.2207 14.5542 21.6714 14.5542 22.175C14.5542 22.9748 14.2834 23.6116 13.7417 24.0856C13.2043 24.5596 12.4954 24.7965 11.6152 24.7965C10.7266 24.7965 10.0135 24.5596 9.47607 24.0856C8.94287 23.6074 8.67627 22.9705 8.67627 22.175C8.67627 21.6756 8.81169 21.2249 9.08252 20.8229C9.35758 20.4209 9.73633 20.1162 10.2188 19.9088C9.80827 19.7057 9.48454 19.4243 9.24756 19.0646C9.01058 18.7049 8.89209 18.2965 8.89209 17.8395C8.89209 17.0609 9.14176 16.443 9.64111 15.986C10.1405 15.529 10.7985 15.3004 11.6152 15.3004C12.4277 15.3004 13.0837 15.529 13.583 15.986C14.0866 16.443 14.3384 17.0609 14.3384 17.8395ZM13.3799 22.1496C13.3799 21.6333 13.2148 21.2122 12.8848 20.8864C12.5589 20.5605 12.1315 20.3976 11.6025 20.3976C11.0736 20.3976 10.6483 20.5584 10.3267 20.88C10.0093 21.2016 9.85059 21.6248 9.85059 22.1496C9.85059 22.6743 10.005 23.0869 10.314 23.3874C10.6271 23.6878 11.0609 23.838 11.6152 23.838C12.1654 23.838 12.597 23.6878 12.9102 23.3874C13.2233 23.0827 13.3799 22.6701 13.3799 22.1496ZM11.6152 16.2653C11.154 16.2653 10.7795 16.4092 10.4917 16.6969C10.2082 16.9805 10.0664 17.3677 10.0664 17.8586C10.0664 18.3283 10.2061 18.7091 10.4854 19.0011C10.7689 19.2889 11.1455 19.4328 11.6152 19.4328C12.085 19.4328 12.4595 19.2889 12.7388 19.0011C13.0223 18.7091 13.1641 18.3283 13.1641 17.8586C13.1641 17.3888 13.0181 17.0058 12.7261 16.7096C12.4341 16.4134 12.0638 16.2653 11.6152 16.2653ZM17.7407 19.4772H18.623C19.1774 19.4687 19.6133 19.3227 19.9307 19.0392C20.248 18.7557 20.4067 18.3727 20.4067 17.8903C20.4067 16.807 19.8672 16.2653 18.7881 16.2653C18.2803 16.2653 17.874 16.4113 17.5693 16.7033C17.2689 16.991 17.1187 17.374 17.1187 17.8522H15.9443C15.9443 17.1201 16.2109 16.5128 16.7441 16.0304C17.2816 15.5438 17.9629 15.3004 18.7881 15.3004C19.6598 15.3004 20.3433 15.5311 20.8384 15.9923C21.3335 16.4536 21.5811 17.0947 21.5811 17.9157C21.5811 18.3177 21.4499 18.707 21.1875 19.0836C20.9294 19.4603 20.576 19.7417 20.1274 19.9279C20.6353 20.0887 21.0267 20.3553 21.3018 20.7277C21.5811 21.1001 21.7207 21.555 21.7207 22.0924C21.7207 22.9219 21.4499 23.5799 20.9082 24.0666C20.3665 24.5532 19.6619 24.7965 18.7944 24.7965C17.9269 24.7965 17.2202 24.5617 16.6743 24.0919C16.1326 23.6222 15.8618 23.0023 15.8618 22.2321H17.0425C17.0425 22.7187 17.2012 23.1081 17.5186 23.4001C17.8359 23.692 18.2612 23.838 18.7944 23.838C19.3615 23.838 19.7952 23.6899 20.0957 23.3937C20.3962 23.0975 20.5464 22.6722 20.5464 22.1178C20.5464 21.5804 20.3813 21.1678 20.0513 20.88C19.7212 20.5923 19.2451 20.4442 18.623 20.4357H17.7407V19.4772ZM23.2314 17.2047C23.2314 16.6504 23.4071 16.1933 23.7583 15.8336C24.1138 15.4739 24.5687 15.2941 25.123 15.2941C25.6859 15.2941 26.1408 15.4761 26.4878 15.84C26.839 16.1997 27.0146 16.6673 27.0146 17.2428V17.6935C27.0146 18.2521 26.8369 18.7091 26.4814 19.0646C26.1302 19.4158 25.6816 19.5915 25.1357 19.5915C24.5856 19.5915 24.1307 19.4158 23.771 19.0646C23.4113 18.7091 23.2314 18.2373 23.2314 17.6491V17.2047ZM24.1074 17.6935C24.1074 18.0236 24.2005 18.2965 24.3867 18.5124C24.5729 18.7239 24.8226 18.8297 25.1357 18.8297C25.4362 18.8297 25.6774 18.7261 25.8594 18.5187C26.0456 18.3114 26.1387 18.0278 26.1387 17.6681V17.2047C26.1387 16.8747 26.0477 16.6017 25.8657 16.3859C25.6838 16.1701 25.4362 16.0622 25.123 16.0622C24.8099 16.0622 24.5623 16.1701 24.3804 16.3859C24.1984 16.6017 24.1074 16.8831 24.1074 17.2301V17.6935ZM27.7319 22.4035C27.7319 21.8491 27.9076 21.3942 28.2588 21.0387C28.6143 20.679 29.0692 20.4992 29.6235 20.4992C30.1779 20.4992 30.6328 20.6769 30.9883 21.0324C31.3438 21.3878 31.5215 21.8597 31.5215 22.4479V22.8986C31.5215 23.453 31.3438 23.91 30.9883 24.2697C30.637 24.6252 30.1864 24.8029 29.6362 24.8029C29.0861 24.8029 28.6312 24.6273 28.2715 24.276C27.9118 23.9206 27.7319 23.4487 27.7319 22.8605V22.4035ZM28.6079 22.8986C28.6079 23.2329 28.701 23.508 28.8872 23.7238C29.0734 23.9354 29.3231 24.0412 29.6362 24.0412C29.9409 24.0412 30.1842 23.9375 30.3662 23.7301C30.5482 23.5185 30.6392 23.2329 30.6392 22.8732V22.4035C30.6392 22.0692 30.5461 21.7962 30.3599 21.5846C30.1779 21.373 29.9325 21.2672 29.6235 21.2672C29.3231 21.2672 29.0776 21.373 28.8872 21.5846C28.701 21.792 28.6079 22.0734 28.6079 22.4289V22.8986ZM25.4023 23.9713L24.7358 23.5524L29.249 16.3288L29.9155 16.7477L25.4023 23.9713Z" fill="#0C0B0B"/>
<mask id="path-2-inside-1" fill="white">
<path d="M39.1012 20.1696C39.8546 20.1696 40.4702 20.7811 40.4188 21.5328C40.164 25.2642 38.8667 28.8595 36.6618 31.9031C34.1894 35.3159 30.7022 37.8605 26.6978 39.1737C22.6934 40.4869 18.3765 40.5017 14.3632 39.216C10.35 37.9302 6.84538 35.4096 4.34968 32.0138C1.85397 28.6181 0.494677 24.5207 0.465802 20.3066C0.436926 16.0925 1.73994 11.9769 4.18888 8.54732C6.63782 5.11769 10.1075 2.54927 14.1028 1.20862C17.6659 0.013001 21.4845 -0.151633 25.1219 0.719206C25.8546 0.89463 26.2544 1.66475 26.0295 2.3838C25.8045 3.10285 25.04 3.49777 24.3055 3.33025C21.2189 2.62634 17.9887 2.78256 14.9708 3.79524C11.5205 4.953 8.52414 7.17104 6.40928 10.1328C4.29442 13.0946 3.16916 16.6487 3.1941 20.2879C3.21904 23.9272 4.3929 27.4655 6.54814 30.398C8.70339 33.3305 11.7299 35.5073 15.1957 36.6177C18.6615 37.7281 22.3895 37.7153 25.8476 36.5812C29.3057 35.4471 32.3172 33.2496 34.4523 30.3024C36.3198 27.7246 37.4334 24.6883 37.6831 21.5324C37.7426 20.7813 38.3477 20.1696 39.1012 20.1696Z"/>
</mask>
<path d="M39.1012 20.1696C39.8546 20.1696 40.4702 20.7811 40.4188 21.5328C40.164 25.2642 38.8667 28.8595 36.6618 31.9031C34.1894 35.3159 30.7022 37.8605 26.6978 39.1737C22.6934 40.4869 18.3765 40.5017 14.3632 39.216C10.35 37.9302 6.84538 35.4096 4.34968 32.0138C1.85397 28.6181 0.494677 24.5207 0.465802 20.3066C0.436926 16.0925 1.73994 11.9769 4.18888 8.54732C6.63782 5.11769 10.1075 2.54927 14.1028 1.20862C17.6659 0.013001 21.4845 -0.151633 25.1219 0.719206C25.8546 0.89463 26.2544 1.66475 26.0295 2.3838C25.8045 3.10285 25.04 3.49777 24.3055 3.33025C21.2189 2.62634 17.9887 2.78256 14.9708 3.79524C11.5205 4.953 8.52414 7.17104 6.40928 10.1328C4.29442 13.0946 3.16916 16.6487 3.1941 20.2879C3.21904 23.9272 4.3929 27.4655 6.54814 30.398C8.70339 33.3305 11.7299 35.5073 15.1957 36.6177C18.6615 37.7281 22.3895 37.7153 25.8476 36.5812C29.3057 35.4471 32.3172 33.2496 34.4523 30.3024C36.3198 27.7246 37.4334 24.6883 37.6831 21.5324C37.7426 20.7813 38.3477 20.1696 39.1012 20.1696Z" stroke="#0C0B0B" stroke-width="4" mask="url(#path-2-inside-1)"/>
</svg>
