<svg width="475" height="268" viewBox="0 0 475 268" fill="none" xmlns="http://www.w3.org/2000/svg">
<path d="M24.0051 260.081L24.0369 260.843C24.5404 260.25 25.2196 259.954 26.0745 259.954C27.0351 259.954 27.6889 260.322 28.0359 261.059C28.2644 260.729 28.5606 260.462 28.9246 260.259C29.2927 260.056 29.7265 259.954 30.2258 259.954C31.7323 259.954 32.4983 260.752 32.5237 262.347V266.949H31.3494V262.417C31.3494 261.926 31.2372 261.56 31.0129 261.319C30.7887 261.074 30.412 260.951 29.8831 260.951C29.4472 260.951 29.0854 261.082 28.7976 261.344C28.5098 261.602 28.3427 261.952 28.2961 262.392V266.949H27.1155V262.449C27.1155 261.45 26.6267 260.951 25.6492 260.951C24.879 260.951 24.3521 261.279 24.0686 261.935V266.949H22.8943V260.081H24.0051ZM33.99 263.452C33.99 262.779 34.1212 262.174 34.3835 261.636C34.6501 261.099 35.0183 260.684 35.488 260.392C35.962 260.1 36.5015 259.954 37.1067 259.954C38.0419 259.954 38.7973 260.278 39.3728 260.925C39.9526 261.573 40.2424 262.434 40.2424 263.509V263.591C40.2424 264.26 40.1134 264.861 39.8552 265.394C39.6013 265.923 39.2353 266.336 38.7571 266.632C38.2831 266.928 37.7372 267.076 37.1194 267.076C36.1884 267.076 35.433 266.753 34.8533 266.105C34.2778 265.458 33.99 264.601 33.99 263.534V263.452ZM35.1707 263.591C35.1707 264.353 35.3463 264.965 35.6975 265.426C36.053 265.887 36.5269 266.118 37.1194 266.118C37.7161 266.118 38.19 265.885 38.5413 265.42C38.8925 264.95 39.0681 264.294 39.0681 263.452C39.0681 262.699 38.8883 262.089 38.5286 261.624C38.1731 261.154 37.6991 260.919 37.1067 260.919C36.5269 260.919 36.0593 261.15 35.7039 261.611C35.3484 262.072 35.1707 262.732 35.1707 263.591ZM42.8259 260.081L42.864 260.944C43.3888 260.284 44.0743 259.954 44.9207 259.954C46.3722 259.954 47.1042 260.773 47.1169 262.411V266.949H45.9426V262.404C45.9384 261.909 45.8241 261.543 45.5999 261.306C45.3798 261.069 45.0349 260.951 44.5652 260.951C44.1843 260.951 43.85 261.052 43.5623 261.255C43.2745 261.459 43.0502 261.725 42.8894 262.055V266.949H41.7151V260.081H42.8259Z" fill="#0C0B0B"/>
<path d="M8.27555 233.338C8.27555 234.713 8.04069 235.735 7.57096 236.403C7.10123 237.072 6.36702 237.406 5.36832 237.406C4.38232 237.406 3.65234 237.081 3.17838 236.429C2.70442 235.773 2.45898 234.795 2.44205 233.496V231.928C2.44205 230.57 2.67692 229.561 3.14664 228.901C3.61637 228.24 4.3527 227.91 5.35563 227.91C6.3501 227.91 7.08219 228.23 7.55192 228.869C8.02164 229.504 8.26286 230.485 8.27555 231.814V233.338ZM7.10123 231.732C7.10123 230.737 6.96159 230.013 6.68229 229.561C6.40299 229.104 5.96077 228.875 5.35563 228.875C4.75472 228.875 4.31673 229.102 4.04166 229.554C3.7666 230.007 3.62483 230.703 3.61637 231.643V233.522C3.61637 234.52 3.76025 235.259 4.04801 235.737C4.34 236.211 4.78011 236.448 5.36832 236.448C5.94808 236.448 6.3776 236.224 6.6569 235.775C6.94043 235.326 7.08854 234.62 7.10123 233.655V231.732Z" fill="#0C0B0B"/>
<path d="M6.33952 192.353H5.15885V184.526L2.79118 185.396V184.33L6.15543 183.066H6.33952V192.353Z" fill="#0C0B0B"/>
<path d="M8.5358 147.427H2.48014V146.582L5.67936 143.028C6.15332 142.49 6.47916 142.054 6.6569 141.72C6.83886 141.381 6.92985 141.032 6.92985 140.673C6.92985 140.19 6.78385 139.795 6.49186 139.486C6.19987 139.177 5.81054 139.022 5.32389 139.022C4.73991 139.022 4.28499 139.189 3.95914 139.524C3.63753 139.854 3.47672 140.315 3.47672 140.907H2.30241C2.30241 140.057 2.57536 139.369 3.12125 138.844C3.67138 138.32 4.4056 138.057 5.32389 138.057C6.18294 138.057 6.86214 138.284 7.36149 138.737C7.86084 139.185 8.11051 139.784 8.11051 140.533C8.11051 141.443 7.53076 142.526 6.37125 143.783L3.89567 146.468H8.5358V147.427Z" fill="#0C0B0B"/>
<path d="M4.18766 97.3077H5.06998C5.62435 97.2992 6.06022 97.1532 6.3776 96.8697C6.69498 96.5862 6.85368 96.2032 6.85368 95.7208C6.85368 94.6375 6.31413 94.0958 5.23502 94.0958C4.72721 94.0958 4.32096 94.2418 4.01627 94.5338C3.71582 94.8215 3.56559 95.2045 3.56559 95.6827H2.39127C2.39127 94.9506 2.65788 94.3434 3.19108 93.8609C3.72851 93.3743 4.40983 93.131 5.23502 93.131C6.10677 93.131 6.7902 93.3616 7.28532 93.8228C7.78043 94.2841 8.02799 94.9252 8.02799 95.7462C8.02799 96.1482 7.89681 96.5375 7.63444 96.9142C7.3763 97.2908 7.02295 97.5722 6.57438 97.7584C7.08219 97.9192 7.47363 98.1858 7.7487 98.5582C8.02799 98.9306 8.16764 99.3855 8.16764 99.9229C8.16764 100.752 7.89681 101.41 7.35514 101.897C6.81347 102.384 6.10888 102.627 5.24137 102.627C4.37386 102.627 3.66715 102.392 3.12125 101.922C2.57959 101.453 2.30875 100.833 2.30875 100.063H3.48942C3.48942 100.549 3.64811 100.939 3.96549 101.231C4.28288 101.523 4.70817 101.669 5.24137 101.669C5.80843 101.669 6.24218 101.52 6.54264 101.224C6.8431 100.928 6.99332 100.503 6.99332 99.9483C6.99332 99.4109 6.82829 98.9983 6.49821 98.7105C6.16813 98.4228 5.69205 98.2747 5.06998 98.2662H4.18766V97.3077Z" fill="#0C0B0B"/>
<path d="M7.43766 54.4697H8.71989V55.4282H7.43766V57.5737H6.257V55.4282H2.0485V54.7363L6.18717 48.3315H7.43766V54.4697ZM3.38151 54.4697H6.257V49.9374L6.11735 50.1913L3.38151 54.4697Z" fill="#0C0B0B"/>
<path d="M3.01969 8.01346L3.48942 3.40506H8.22477V4.49051H4.486L4.2067 7.01053C4.6595 6.74393 5.17366 6.61063 5.74918 6.61063C6.59131 6.61063 7.25993 6.88992 7.75504 7.44852C8.25016 8.00288 8.49772 8.75402 8.49772 9.70193C8.49772 10.6541 8.23958 11.4052 7.7233 11.9554C7.21126 12.5013 6.49398 12.7742 5.57145 12.7742C4.75472 12.7742 4.08821 12.5478 3.57194 12.095C3.05566 11.6422 2.76155 11.0159 2.68961 10.2161H3.80045C3.87239 10.7451 4.06071 11.145 4.36539 11.4158C4.67008 11.6824 5.0721 11.8157 5.57145 11.8157C6.11735 11.8157 6.54476 11.6295 6.85368 11.2571C7.16683 10.8847 7.3234 10.3706 7.3234 9.71463C7.3234 9.09679 7.15413 8.60167 6.81559 8.22928C6.48128 7.85265 6.03483 7.66434 5.47623 7.66434C4.96419 7.66434 4.56217 7.77648 4.27018 8.00076L3.95914 8.25467L3.01969 8.01346Z" fill="#0C0B0B"/>
<path d="M96.5083 258.418V260.081H97.7905V260.989H96.5083V265.248C96.5083 265.523 96.5654 265.731 96.6797 265.87C96.7939 266.006 96.9886 266.073 97.2637 266.073C97.3991 266.073 97.5853 266.048 97.8223 265.997V266.949C97.5133 267.034 97.2129 267.076 96.9209 267.076C96.3962 267.076 96.0005 266.918 95.7339 266.6C95.4673 266.283 95.334 265.832 95.334 265.248V260.989H94.0835V260.081H95.334V258.418H96.5083ZM103.408 266.27C102.951 266.808 102.28 267.076 101.396 267.076C100.664 267.076 100.105 266.865 99.7202 266.442C99.3394 266.014 99.1468 265.384 99.1426 264.55V260.081H100.317V264.518C100.317 265.559 100.74 266.08 101.586 266.08C102.484 266.08 103.08 265.745 103.376 265.077V260.081H104.551V266.949H103.434L103.408 266.27ZM109.191 267.076C108.26 267.076 107.502 266.772 106.918 266.162C106.334 265.549 106.042 264.73 106.042 263.706V263.49C106.042 262.809 106.172 262.201 106.43 261.668C106.692 261.131 107.056 260.712 107.521 260.411C107.991 260.107 108.499 259.954 109.045 259.954C109.938 259.954 110.632 260.248 111.127 260.837C111.622 261.425 111.87 262.267 111.87 263.363V263.852H107.217C107.234 264.529 107.431 265.077 107.807 265.496C108.188 265.91 108.67 266.118 109.254 266.118C109.669 266.118 110.02 266.033 110.308 265.864C110.596 265.695 110.848 265.47 111.063 265.191L111.781 265.75C111.205 266.634 110.342 267.076 109.191 267.076ZM109.045 260.919C108.571 260.919 108.173 261.093 107.852 261.44C107.53 261.782 107.331 262.265 107.255 262.887H110.695V262.798C110.661 262.201 110.501 261.74 110.213 261.414C109.925 261.084 109.536 260.919 109.045 260.919Z" fill="#0C0B0B"/>
<path d="M164.88 265.331L166.2 260.081H167.375L165.375 266.949H164.423L162.753 261.744L161.128 266.949H160.176L158.183 260.081H159.351L160.703 265.223L162.303 260.081H163.249L164.88 265.331ZM171.424 267.076C170.493 267.076 169.736 266.772 169.152 266.162C168.568 265.549 168.276 264.73 168.276 263.706V263.49C168.276 262.809 168.405 262.201 168.663 261.668C168.925 261.131 169.289 260.712 169.755 260.411C170.225 260.107 170.732 259.954 171.278 259.954C172.171 259.954 172.865 260.248 173.36 260.837C173.855 261.425 174.103 262.267 174.103 263.363V263.852H169.45C169.467 264.529 169.664 265.077 170.041 265.496C170.421 265.91 170.904 266.118 171.488 266.118C171.903 266.118 172.254 266.033 172.542 265.864C172.829 265.695 173.081 265.47 173.297 265.191L174.014 265.75C173.439 266.634 172.575 267.076 171.424 267.076ZM171.278 260.919C170.804 260.919 170.407 261.093 170.085 261.44C169.763 261.782 169.564 262.265 169.488 262.887H172.929V262.798C172.895 262.201 172.734 261.74 172.446 261.414C172.159 261.084 171.769 260.919 171.278 260.919ZM175.182 263.458C175.182 262.404 175.432 261.558 175.931 260.919C176.431 260.276 177.084 259.954 177.893 259.954C178.697 259.954 179.333 260.229 179.803 260.779V257.199H180.978V266.949H179.898L179.841 266.213C179.372 266.789 178.718 267.076 177.88 267.076C177.084 267.076 176.435 266.75 175.931 266.099C175.432 265.447 175.182 264.596 175.182 263.547V263.458ZM176.356 263.591C176.356 264.37 176.517 264.979 176.839 265.42C177.16 265.86 177.605 266.08 178.172 266.08C178.917 266.08 179.46 265.745 179.803 265.077V261.922C179.452 261.275 178.912 260.951 178.185 260.951C177.609 260.951 177.16 261.173 176.839 261.617C176.517 262.062 176.356 262.72 176.356 263.591Z" fill="#0C0B0B"/>
<path d="M231.246 258.418V260.081H232.528V260.989H231.246V265.248C231.246 265.523 231.303 265.731 231.417 265.87C231.531 266.006 231.726 266.073 232.001 266.073C232.136 266.073 232.323 266.048 232.56 265.997V266.949C232.251 267.034 231.95 267.076 231.658 267.076C231.133 267.076 230.738 266.918 230.471 266.6C230.205 266.283 230.071 265.832 230.071 265.248V260.989H228.821V260.081H230.071V258.418H231.246ZM235.08 260.913C235.6 260.274 236.277 259.954 237.111 259.954C238.562 259.954 239.294 260.773 239.307 262.411V266.949H238.133V262.404C238.129 261.909 238.014 261.543 237.79 261.306C237.57 261.069 237.225 260.951 236.755 260.951C236.375 260.951 236.04 261.052 235.752 261.255C235.465 261.459 235.24 261.725 235.08 262.055V266.949H233.905V257.199H235.08V260.913ZM245.306 266.27C244.849 266.808 244.178 267.076 243.293 267.076C242.561 267.076 242.003 266.865 241.618 266.442C241.237 266.014 241.044 265.384 241.04 264.55V260.081H242.214V264.518C242.214 265.559 242.638 266.08 243.484 266.08C244.381 266.08 244.978 265.745 245.274 265.077V260.081H246.448V266.949H245.331L245.306 266.27Z" fill="#0C0B0B"/>
<path d="M294.114 266.949V260.989H293.028V260.081H294.114V259.377C294.114 258.64 294.311 258.071 294.704 257.669C295.098 257.267 295.654 257.066 296.374 257.066C296.644 257.066 296.913 257.102 297.18 257.174L297.116 258.126C296.917 258.088 296.706 258.069 296.481 258.069C296.101 258.069 295.806 258.181 295.599 258.405C295.392 258.625 295.288 258.943 295.288 259.358V260.081H296.754V260.989H295.288V266.949H294.114ZM301.375 261.135C301.198 261.105 301.005 261.09 300.798 261.09C300.028 261.09 299.505 261.418 299.23 262.074V266.949H298.056V260.081H299.198L299.217 260.875C299.602 260.261 300.148 259.954 300.855 259.954C301.083 259.954 301.257 259.984 301.375 260.043V261.135ZM303.737 266.949H302.562V260.081H303.737V266.949ZM302.467 258.259C302.467 258.069 302.524 257.908 302.639 257.777C302.757 257.646 302.931 257.58 303.159 257.58C303.388 257.58 303.561 257.646 303.68 257.777C303.798 257.908 303.857 258.069 303.857 258.259C303.857 258.45 303.798 258.609 303.68 258.735C303.561 258.862 303.388 258.926 303.159 258.926C302.931 258.926 302.757 258.862 302.639 258.735C302.524 258.609 302.467 258.45 302.467 258.259Z" fill="#0C0B0B"/>
<path d="M354.45 265.128C354.45 264.81 354.329 264.565 354.088 264.391C353.851 264.214 353.434 264.061 352.838 263.934C352.245 263.807 351.773 263.655 351.422 263.477C351.075 263.299 350.817 263.088 350.648 262.842C350.483 262.597 350.4 262.305 350.4 261.966C350.4 261.404 350.637 260.928 351.111 260.538C351.589 260.149 352.199 259.954 352.939 259.954C353.718 259.954 354.348 260.155 354.831 260.557C355.317 260.959 355.561 261.473 355.561 262.1H354.38C354.38 261.778 354.243 261.501 353.968 261.268C353.697 261.035 353.354 260.919 352.939 260.919C352.512 260.919 352.177 261.012 351.936 261.198C351.695 261.385 351.574 261.628 351.574 261.928C351.574 262.212 351.687 262.426 351.911 262.569C352.135 262.713 352.539 262.851 353.123 262.982C353.712 263.113 354.188 263.27 354.552 263.452C354.915 263.634 355.184 263.854 355.358 264.112C355.535 264.366 355.624 264.677 355.624 265.045C355.624 265.659 355.379 266.152 354.888 266.524C354.397 266.892 353.76 267.076 352.977 267.076C352.427 267.076 351.941 266.979 351.517 266.784C351.094 266.59 350.762 266.319 350.521 265.972C350.284 265.621 350.165 265.242 350.165 264.836H351.34C351.361 265.229 351.517 265.542 351.809 265.775C352.106 266.004 352.495 266.118 352.977 266.118C353.422 266.118 353.777 266.029 354.044 265.851C354.315 265.669 354.45 265.428 354.45 265.128ZM361.394 266.949C361.327 266.814 361.272 266.573 361.229 266.226C360.683 266.793 360.032 267.076 359.274 267.076C358.597 267.076 358.041 266.886 357.605 266.505C357.173 266.12 356.957 265.633 356.957 265.045C356.957 264.33 357.228 263.776 357.77 263.382C358.316 262.984 359.082 262.785 360.068 262.785H361.21V262.246C361.21 261.835 361.087 261.509 360.842 261.268C360.597 261.023 360.235 260.9 359.757 260.9C359.338 260.9 358.986 261.006 358.703 261.217C358.419 261.429 358.278 261.685 358.278 261.985H357.097C357.097 261.643 357.218 261.313 357.459 260.995C357.704 260.674 358.034 260.42 358.449 260.234C358.868 260.047 359.327 259.954 359.826 259.954C360.618 259.954 361.238 260.153 361.686 260.551C362.135 260.944 362.368 261.488 362.385 262.182V265.343C362.385 265.974 362.465 266.475 362.626 266.848V266.949H361.394ZM359.446 266.054C359.814 266.054 360.163 265.959 360.493 265.769C360.823 265.578 361.062 265.331 361.21 265.026V263.617H360.29C358.851 263.617 358.132 264.038 358.132 264.88C358.132 265.248 358.254 265.536 358.5 265.743C358.745 265.951 359.06 266.054 359.446 266.054ZM365.819 258.418V260.081H367.101V260.989H365.819V265.248C365.819 265.523 365.876 265.731 365.99 265.87C366.104 266.006 366.299 266.073 366.574 266.073C366.709 266.073 366.896 266.048 367.133 265.997V266.949C366.824 267.034 366.523 267.076 366.231 267.076C365.706 267.076 365.311 266.918 365.044 266.6C364.778 266.283 364.644 265.832 364.644 265.248V260.989H363.394V260.081H364.644V258.418H365.819Z" fill="#0C0B0B"/>
<path d="M418.333 265.128C418.333 264.81 418.213 264.565 417.972 264.391C417.735 264.214 417.318 264.061 416.721 263.934C416.129 263.807 415.657 263.655 415.306 263.477C414.959 263.299 414.701 263.088 414.531 262.842C414.366 262.597 414.284 262.305 414.284 261.966C414.284 261.404 414.521 260.928 414.995 260.538C415.473 260.149 416.082 259.954 416.823 259.954C417.601 259.954 418.232 260.155 418.714 260.557C419.201 260.959 419.444 261.473 419.444 262.1H418.264C418.264 261.778 418.126 261.501 417.851 261.268C417.58 261.035 417.237 260.919 416.823 260.919C416.395 260.919 416.061 261.012 415.82 261.198C415.579 261.385 415.458 261.628 415.458 261.928C415.458 262.212 415.57 262.426 415.794 262.569C416.019 262.713 416.423 262.851 417.007 262.982C417.595 263.113 418.071 263.27 418.435 263.452C418.799 263.634 419.068 263.854 419.241 264.112C419.419 264.366 419.508 264.677 419.508 265.045C419.508 265.659 419.262 266.152 418.771 266.524C418.281 266.892 417.644 267.076 416.861 267.076C416.311 267.076 415.824 266.979 415.401 266.784C414.978 266.59 414.646 266.319 414.404 265.972C414.167 265.621 414.049 265.242 414.049 264.836H415.223C415.244 265.229 415.401 265.542 415.693 265.775C415.989 266.004 416.378 266.118 416.861 266.118C417.305 266.118 417.661 266.029 417.927 265.851C418.198 265.669 418.333 265.428 418.333 265.128ZM425.278 266.27C424.821 266.808 424.15 267.076 423.266 267.076C422.534 267.076 421.975 266.865 421.59 266.442C421.209 266.014 421.016 265.384 421.012 264.55V260.081H422.187V264.518C422.187 265.559 422.61 266.08 423.456 266.08C424.353 266.08 424.95 265.745 425.246 265.077V260.081H426.42V266.949H425.303L425.278 266.27ZM429.321 260.081L429.359 260.944C429.884 260.284 430.57 259.954 431.416 259.954C432.868 259.954 433.6 260.773 433.612 262.411V266.949H432.438V262.404C432.434 261.909 432.319 261.543 432.095 261.306C431.875 261.069 431.53 260.951 431.061 260.951C430.68 260.951 430.345 261.052 430.058 261.255C429.77 261.459 429.546 261.725 429.385 262.055V266.949H428.21V260.081H429.321Z" fill="#0C0B0B"/>
<path d="M35.2021 234H426.202" stroke="#F5F5F7"/>
<path d="M35.2332 189H426.233" stroke="#F5F5F7"/>
<path d="M35.2021 144H426.202" stroke="#F5F5F7"/>
<path d="M35.2021 99H426.202" stroke="#F5F5F7"/>
<path d="M35.2021 54H426.202" stroke="#F5F5F7"/>
<path d="M35.2021 9H426.202" stroke="#F5F5F7"/>
<g filter="url(#filter0_d)">
<path d="M110.845 166.199C110.845 169.252 108.37 171.728 105.316 171.728C102.263 171.728 99.7872 169.252 99.7872 166.199C99.7872 163.145 102.263 160.67 105.316 160.67C108.37 160.67 110.845 163.145 110.845 166.199Z" fill="#0C0B0B"/>
</g>
<g opacity="0.3" filter="url(#filter1_f)">
<path fill-rule="evenodd" clip-rule="evenodd" d="M94.1003 138.684H129.436C131.646 138.684 133.436 140.475 133.436 142.684V152.542C133.436 154.752 131.646 156.542 129.436 156.542H116.259L115.611 157.066C115.464 157.184 115.255 157.184 115.108 157.066L114.46 156.542H94.1003C91.8912 156.542 90.1003 154.752 90.1003 152.542V142.684C90.1003 140.475 91.8912 138.684 94.1003 138.684Z" fill="#0C0B0B"/>
</g>
<path fill-rule="evenodd" clip-rule="evenodd" d="M83.9961 129.281H125.996C128.205 129.281 129.996 131.071 129.996 133.281V147.281C129.996 149.49 128.205 151.281 125.996 151.281H111.996L105.256 157.057C105.107 157.186 104.886 157.186 104.736 157.057L97.9961 151.281H83.9961C81.787 151.281 79.9961 149.49 79.9961 147.281V133.281C79.9961 131.071 81.787 129.281 83.9961 129.281Z" fill="white"/>
<path d="M94.5639 138.037L93.1639 138.471C93.0239 138.377 92.8839 138.247 92.7439 138.079C92.6039 137.911 92.5339 137.677 92.5339 137.379C92.5339 136.819 92.8746 136.427 93.5559 136.203L95.1239 135.671H95.6419C96.0433 135.671 96.3606 135.787 96.5939 136.021C96.8273 136.254 96.9439 136.571 96.9439 136.973V144.267C96.8413 144.285 96.6873 144.309 96.4819 144.337C96.2859 144.374 96.0853 144.393 95.8799 144.393C95.6746 144.393 95.4879 144.379 95.3199 144.351C95.1613 144.323 95.0259 144.267 94.9139 144.183C94.8019 144.099 94.7133 143.987 94.6479 143.847C94.5919 143.697 94.5639 143.506 94.5639 143.273V138.037ZM100.176 145.303C100.017 145.508 99.8447 145.657 99.658 145.751C99.4807 145.844 99.2614 145.891 99 145.891C98.5894 145.891 98.2394 145.774 97.95 145.541C98.1554 144.962 98.328 144.369 98.468 143.763C98.608 143.147 98.7247 142.591 98.818 142.097C98.9767 142.013 99.168 141.943 99.392 141.887C99.616 141.821 99.84 141.789 100.064 141.789C100.353 141.789 100.605 141.854 100.82 141.985C101.044 142.115 101.156 142.349 101.156 142.685C101.156 142.881 101.128 143.1 101.072 143.343C101.016 143.576 100.941 143.814 100.848 144.057C100.755 144.29 100.647 144.519 100.526 144.743C100.414 144.967 100.297 145.153 100.176 145.303ZM105.194 144.505C104.765 144.505 104.373 144.472 104.018 144.407C103.673 144.341 103.374 144.243 103.122 144.113C102.87 143.982 102.674 143.823 102.534 143.637C102.394 143.441 102.324 143.217 102.324 142.965C102.324 142.703 102.399 142.484 102.548 142.307C102.698 142.129 102.866 141.989 103.052 141.887C103.314 142.083 103.594 142.255 103.892 142.405C104.191 142.545 104.569 142.615 105.026 142.615C105.465 142.615 105.778 142.517 105.964 142.321C106.151 142.125 106.244 141.887 106.244 141.607C106.244 141.336 106.16 141.112 105.992 140.935C105.834 140.757 105.554 140.669 105.152 140.669C104.9 140.669 104.69 140.697 104.522 140.753C104.354 140.809 104.163 140.888 103.948 140.991C103.491 140.972 103.127 140.851 102.856 140.627C102.595 140.393 102.464 140.039 102.464 139.563C102.464 139.535 102.464 139.502 102.464 139.465C102.464 139.418 102.469 139.329 102.478 139.199L102.646 137.071C102.674 136.669 102.8 136.352 103.024 136.119C103.248 135.885 103.561 135.769 103.962 135.769H107.994C108.05 135.871 108.106 136.007 108.162 136.175C108.218 136.343 108.246 136.52 108.246 136.707C108.246 137.061 108.167 137.313 108.008 137.463C107.85 137.612 107.649 137.687 107.406 137.687H104.718L104.62 139.003C104.798 138.956 104.975 138.914 105.152 138.877C105.339 138.839 105.572 138.821 105.852 138.821C106.338 138.821 106.758 138.895 107.112 139.045C107.467 139.185 107.756 139.381 107.98 139.633C108.214 139.885 108.382 140.179 108.484 140.515C108.596 140.851 108.652 141.21 108.652 141.593C108.652 141.975 108.587 142.344 108.456 142.699C108.326 143.053 108.12 143.366 107.84 143.637C107.56 143.898 107.201 144.108 106.762 144.267C106.333 144.425 105.81 144.505 105.194 144.505ZM116.657 144.267C116.563 144.295 116.414 144.323 116.209 144.351C116.013 144.379 115.807 144.393 115.593 144.393C115.387 144.393 115.201 144.379 115.033 144.351C114.874 144.323 114.739 144.267 114.627 144.183C114.515 144.099 114.426 143.987 114.361 143.847C114.305 143.697 114.277 143.506 114.277 143.273V140.165C114.277 139.782 114.179 139.516 113.983 139.367C113.796 139.208 113.563 139.129 113.283 139.129C113.096 139.129 112.919 139.152 112.751 139.199C112.583 139.245 112.447 139.301 112.345 139.367V144.267C112.251 144.295 112.102 144.323 111.897 144.351C111.701 144.379 111.495 144.393 111.281 144.393C111.075 144.393 110.889 144.379 110.721 144.351C110.562 144.323 110.427 144.267 110.315 144.183C110.203 144.099 110.114 143.987 110.049 143.847C109.993 143.697 109.965 143.506 109.965 143.273V135.153C110.067 135.134 110.217 135.111 110.413 135.083C110.618 135.045 110.823 135.027 111.029 135.027C111.234 135.027 111.416 135.041 111.575 135.069C111.743 135.097 111.883 135.153 111.995 135.237C112.107 135.321 112.191 135.437 112.247 135.587C112.312 135.727 112.345 135.913 112.345 136.147V137.519C112.466 137.472 112.648 137.421 112.891 137.365C113.143 137.299 113.418 137.267 113.717 137.267C114.641 137.267 115.359 137.5 115.873 137.967C116.395 138.424 116.657 139.11 116.657 140.025V144.267Z" fill="#0C0B0B"/>
<g filter="url(#filter2_d)">
<path d="M178.213 122.752C178.213 125.805 175.738 128.281 172.684 128.281C169.631 128.281 167.155 125.805 167.155 122.752C167.155 119.698 169.631 117.223 172.684 117.223C175.738 117.223 178.213 119.698 178.213 122.752Z" fill="#0C0B0B"/>
</g>
<g opacity="0.3" filter="url(#filter3_f)">
<path fill-rule="evenodd" clip-rule="evenodd" d="M161.469 95.237H196.805C199.014 95.237 200.805 97.0279 200.805 99.237V109.095C200.805 111.304 199.014 113.095 196.805 113.095H183.627L182.979 113.619C182.832 113.737 182.623 113.737 182.476 113.619L181.828 113.095H161.469C159.259 113.095 157.469 111.304 157.469 109.095V99.237C157.469 97.0279 159.259 95.237 161.469 95.237Z" fill="#0C0B0B"/>
</g>
<path fill-rule="evenodd" clip-rule="evenodd" d="M151.364 85.8333H193.364C195.573 85.8333 197.364 87.6241 197.364 89.8333V103.833C197.364 106.042 195.573 107.833 193.364 107.833H179.364L172.625 113.61C172.475 113.739 172.254 113.739 172.104 113.61L165.364 107.833H151.364C149.155 107.833 147.364 106.042 147.364 103.833V89.8333C147.364 87.6241 149.155 85.8333 151.364 85.8333Z" fill="white"/>
<path d="M162.193 92.1113C162.725 92.1113 163.196 92.1813 163.607 92.3213C164.017 92.4519 164.367 92.6339 164.657 92.8673C164.946 93.1006 165.165 93.3759 165.315 93.6933C165.464 94.0106 165.539 94.3513 165.539 94.7153C165.539 95.6953 164.983 96.6286 163.873 97.5153L162.039 98.9853H165.399C165.455 99.0879 165.506 99.2186 165.553 99.3773C165.609 99.5359 165.637 99.7086 165.637 99.8953C165.637 100.231 165.562 100.474 165.413 100.623C165.263 100.763 165.067 100.833 164.825 100.833H159.967C159.761 100.693 159.598 100.516 159.477 100.301C159.365 100.077 159.309 99.8159 159.309 99.5173C159.309 99.1999 159.374 98.9339 159.505 98.7193C159.635 98.4953 159.78 98.3179 159.939 98.1873L161.871 96.5353C162.113 96.3299 162.314 96.1479 162.473 95.9893C162.631 95.8213 162.757 95.6719 162.851 95.5413C162.953 95.4106 163.023 95.2893 163.061 95.1773C163.107 95.0653 163.131 94.9579 163.131 94.8553C163.131 94.5939 163.014 94.3886 162.781 94.2393C162.557 94.0899 162.277 94.0153 161.941 94.0153C161.567 94.0153 161.231 94.0759 160.933 94.1973C160.643 94.3093 160.401 94.4306 160.205 94.5613C160.046 94.4493 159.915 94.3093 159.813 94.1413C159.71 93.9733 159.659 93.7773 159.659 93.5533C159.659 93.0679 159.887 92.7086 160.345 92.4753C160.802 92.2326 161.418 92.1113 162.193 92.1113ZM168.488 101.855C168.329 102.061 168.156 102.21 167.97 102.303C167.792 102.397 167.573 102.443 167.312 102.443C166.901 102.443 166.551 102.327 166.262 102.093C166.467 101.515 166.64 100.922 166.78 100.315C166.92 99.6993 167.036 99.1439 167.13 98.6493C167.288 98.5653 167.48 98.4953 167.704 98.4393C167.928 98.3739 168.152 98.3413 168.376 98.3413C168.665 98.3413 168.917 98.4066 169.132 98.5373C169.356 98.6679 169.468 98.9013 169.468 99.2373C169.468 99.4333 169.44 99.6526 169.384 99.8953C169.328 100.129 169.253 100.367 169.16 100.609C169.066 100.843 168.959 101.071 168.838 101.295C168.726 101.519 168.609 101.706 168.488 101.855ZM173.506 101.057C173.077 101.057 172.685 101.025 172.33 100.959C171.985 100.894 171.686 100.796 171.434 100.665C171.182 100.535 170.986 100.376 170.846 100.189C170.706 99.9933 170.636 99.7693 170.636 99.5173C170.636 99.2559 170.711 99.0366 170.86 98.8593C171.009 98.6819 171.177 98.5419 171.364 98.4393C171.625 98.6353 171.905 98.8079 172.204 98.9573C172.503 99.0973 172.881 99.1673 173.338 99.1673C173.777 99.1673 174.089 99.0693 174.276 98.8733C174.463 98.6773 174.556 98.4393 174.556 98.1593C174.556 97.8886 174.472 97.6646 174.304 97.4873C174.145 97.3099 173.865 97.2213 173.464 97.2213C173.212 97.2213 173.002 97.2493 172.834 97.3053C172.666 97.3613 172.475 97.4406 172.26 97.5433C171.803 97.5246 171.439 97.4033 171.168 97.1793C170.907 96.9459 170.776 96.5913 170.776 96.1153C170.776 96.0873 170.776 96.0546 170.776 96.0173C170.776 95.9706 170.781 95.8819 170.79 95.7513L170.958 93.6233C170.986 93.2219 171.112 92.9046 171.336 92.6713C171.56 92.4379 171.873 92.3213 172.274 92.3213H176.306C176.362 92.4239 176.418 92.5593 176.474 92.7273C176.53 92.8953 176.558 93.0726 176.558 93.2593C176.558 93.6139 176.479 93.8659 176.32 94.0153C176.161 94.1646 175.961 94.2393 175.718 94.2393H173.03L172.932 95.5553C173.109 95.5086 173.287 95.4666 173.464 95.4293C173.651 95.3919 173.884 95.3733 174.164 95.3733C174.649 95.3733 175.069 95.4479 175.424 95.5973C175.779 95.7373 176.068 95.9333 176.292 96.1853C176.525 96.4373 176.693 96.7313 176.796 97.0673C176.908 97.4033 176.964 97.7626 176.964 98.1453C176.964 98.5279 176.899 98.8966 176.768 99.2513C176.637 99.6059 176.432 99.9186 176.152 100.189C175.872 100.451 175.513 100.661 175.074 100.819C174.645 100.978 174.122 101.057 173.506 101.057ZM184.968 100.819C184.875 100.847 184.726 100.875 184.52 100.903C184.324 100.931 184.119 100.945 183.904 100.945C183.699 100.945 183.512 100.931 183.344 100.903C183.186 100.875 183.05 100.819 182.938 100.735C182.826 100.651 182.738 100.539 182.672 100.399C182.616 100.25 182.588 100.059 182.588 99.8253V96.7173C182.588 96.3346 182.49 96.0686 182.294 95.9193C182.108 95.7606 181.874 95.6813 181.594 95.6813C181.408 95.6813 181.23 95.7046 181.062 95.7513C180.894 95.7979 180.759 95.8539 180.656 95.9193V100.819C180.563 100.847 180.414 100.875 180.208 100.903C180.012 100.931 179.807 100.945 179.592 100.945C179.387 100.945 179.2 100.931 179.032 100.903C178.874 100.875 178.738 100.819 178.626 100.735C178.514 100.651 178.426 100.539 178.36 100.399C178.304 100.25 178.276 100.059 178.276 99.8253V91.7053C178.379 91.6866 178.528 91.6633 178.724 91.6353C178.93 91.5979 179.135 91.5793 179.34 91.5793C179.546 91.5793 179.728 91.5933 179.886 91.6213C180.054 91.6493 180.194 91.7053 180.306 91.7893C180.418 91.8733 180.502 91.9899 180.558 92.1393C180.624 92.2793 180.656 92.4659 180.656 92.6993V94.0713C180.778 94.0246 180.96 93.9733 181.202 93.9173C181.454 93.8519 181.73 93.8193 182.028 93.8193C182.952 93.8193 183.671 94.0526 184.184 94.5193C184.707 94.9766 184.968 95.6626 184.968 96.5773V100.819Z" fill="#0C0B0B"/>
<g filter="url(#filter4_d)">
<path d="M305.981 53.0437C305.981 56.0973 303.506 58.5727 300.452 58.5727C297.399 58.5727 294.923 56.0973 294.923 53.0437C294.923 49.9902 297.399 47.5148 300.452 47.5148C303.506 47.5148 305.981 49.9902 305.981 53.0437Z" fill="#0C0B0B"/>
</g>
<g opacity="0.3" filter="url(#filter5_f)">
<path fill-rule="evenodd" clip-rule="evenodd" d="M289.237 25.5291H324.573C326.782 25.5291 328.573 27.32 328.573 29.5291V39.3873C328.573 41.5964 326.782 43.3873 324.573 43.3873H311.395L310.747 43.9108C310.6 44.0292 310.391 44.0292 310.244 43.9108L309.596 43.3873H289.237C287.027 43.3873 285.237 41.5964 285.237 39.3873V29.5291C285.237 27.32 287.027 25.5291 289.237 25.5291Z" fill="#0C0B0B"/>
</g>
<path fill-rule="evenodd" clip-rule="evenodd" d="M279.132 16.1254H321.132C323.341 16.1254 325.132 17.9163 325.132 20.1254V34.1254C325.132 36.3345 323.341 38.1254 321.132 38.1254H307.132L300.393 43.9023C300.243 44.0307 300.022 44.0307 299.872 43.9023L293.132 38.1254H279.132C276.923 38.1254 275.132 36.3345 275.132 34.1254V20.1254C275.132 17.9163 276.923 16.1254 279.132 16.1254Z" fill="white"/>
<path d="M295.596 22.7114C295.774 22.6554 295.974 22.6087 296.198 22.5714C296.432 22.5341 296.642 22.5154 296.828 22.5154C297.043 22.5154 297.248 22.5387 297.444 22.5854C297.65 22.6227 297.832 22.6927 297.99 22.7954C298.149 22.8887 298.275 23.0194 298.368 23.1874C298.462 23.3554 298.508 23.5654 298.508 23.8174V27.5414H299.754C299.81 27.6441 299.866 27.7794 299.922 27.9474C299.978 28.1154 300.006 28.2927 300.006 28.4794C300.006 28.8341 299.927 29.0861 299.768 29.2354C299.61 29.3847 299.409 29.4594 299.166 29.4594H298.508V31.1114C298.406 31.1301 298.252 31.1534 298.046 31.1814C297.841 31.2187 297.645 31.2374 297.458 31.2374C297.253 31.2374 297.071 31.2281 296.912 31.2094C296.754 31.1907 296.618 31.1487 296.506 31.0834C296.404 31.0087 296.324 30.9061 296.268 30.7754C296.212 30.6447 296.184 30.4674 296.184 30.2434V29.4594H292.67C292.456 29.3474 292.269 29.1841 292.11 28.9694C291.961 28.7454 291.886 28.4747 291.886 28.1574C291.886 27.9801 291.91 27.7841 291.956 27.5694C292.003 27.3547 292.082 27.1681 292.194 27.0094L295.596 22.7114ZM296.31 24.9094H296.268L294.406 27.5414H296.31V24.9094ZM307.731 31.1114C307.637 31.1394 307.488 31.1674 307.283 31.1954C307.087 31.2234 306.881 31.2374 306.667 31.2374C306.461 31.2374 306.275 31.2234 306.107 31.1954C305.948 31.1674 305.813 31.1114 305.701 31.0274C305.589 30.9434 305.5 30.8314 305.435 30.6914C305.379 30.5421 305.351 30.3507 305.351 30.1174V27.0094C305.351 26.6267 305.253 26.3607 305.057 26.2114C304.87 26.0527 304.637 25.9734 304.357 25.9734C304.17 25.9734 303.993 25.9967 303.825 26.0434C303.657 26.0901 303.521 26.1461 303.419 26.2114V31.1114C303.325 31.1394 303.176 31.1674 302.971 31.1954C302.775 31.2234 302.569 31.2374 302.355 31.2374C302.149 31.2374 301.963 31.2234 301.795 31.1954C301.636 31.1674 301.501 31.1114 301.389 31.0274C301.277 30.9434 301.188 30.8314 301.123 30.6914C301.067 30.5421 301.039 30.3507 301.039 30.1174V21.9974C301.141 21.9787 301.291 21.9554 301.487 21.9274C301.692 21.8901 301.897 21.8714 302.103 21.8714C302.308 21.8714 302.49 21.8854 302.649 21.9134C302.817 21.9414 302.957 21.9974 303.069 22.0814C303.181 22.1654 303.265 22.2821 303.321 22.4314C303.386 22.5714 303.419 22.7581 303.419 22.9914V24.3634C303.54 24.3167 303.722 24.2654 303.965 24.2094C304.217 24.1441 304.492 24.1114 304.791 24.1114C305.715 24.1114 306.433 24.3447 306.947 24.8114C307.469 25.2687 307.731 25.9547 307.731 26.8694V31.1114Z" fill="#0C0B0B"/>
<path d="M34.471 233.469C34.0896 233.868 34.1044 234.501 34.5039 234.883C34.9034 235.264 35.5364 235.249 35.9177 234.85L34.471 233.469ZM240.406 190.798C246.82 190.798 251.985 188.549 256.145 184.622C260.279 180.718 263.385 175.194 265.799 168.678C270.622 155.661 272.798 138.36 274.678 121.21C276.565 103.988 278.155 86.9225 281.761 74.1435C283.562 67.7572 285.841 62.5466 288.835 58.9473C291.798 55.3862 295.454 53.4041 300.131 53.4041V51.4041C294.78 51.4041 290.586 53.7156 287.298 57.6682C284.041 61.5827 281.668 67.106 279.836 73.6004C276.173 86.5827 274.567 103.866 272.69 120.992C270.804 138.19 268.646 155.238 263.924 167.983C261.566 174.347 258.596 179.557 254.772 183.167C250.973 186.754 246.296 188.798 240.406 188.798V190.798ZM300.131 53.4041C309.456 53.4041 315.243 56.1833 319.359 60.2662C323.534 64.4074 326.065 69.9495 328.743 75.7124C331.389 81.4082 334.176 87.3097 338.892 91.7535C343.658 96.2452 350.307 99.1779 360.533 99.1779V97.1779C350.738 97.1779 344.604 94.3889 340.263 90.298C335.872 86.1592 333.227 80.6173 330.557 74.8696C327.917 69.1891 325.245 63.2878 320.767 58.8463C316.231 54.3467 309.916 51.4041 300.131 51.4041V53.4041ZM360.533 99.1779C380.058 99.1779 390.178 110.208 398.467 121.51C402.582 127.121 406.32 132.918 410.48 137.246C414.683 141.618 419.465 144.66 425.768 144.66V142.66C420.213 142.66 415.918 140.016 411.922 135.86C407.885 131.66 404.304 126.087 400.08 120.327C391.69 108.889 381.05 97.1779 360.533 97.1779V99.1779ZM172.94 123.09C180.537 123.09 186.551 127.088 191.835 133.316C197.137 139.565 201.592 147.924 206.085 156.412C210.55 164.847 215.055 173.414 220.423 179.859C225.807 186.322 232.181 190.798 240.406 190.798V188.798C233.016 188.798 227.151 184.811 221.96 178.579C216.753 172.328 212.347 163.968 207.852 155.476C203.385 147.037 198.83 138.469 193.36 132.022C187.873 125.555 181.352 121.09 172.94 121.09V123.09ZM35.9177 234.85C39.6081 230.983 43.7432 224.801 48.3418 217.814C52.9639 210.792 58.0907 202.897 63.8113 195.476C75.3027 180.569 88.9302 167.933 105.225 167.933V165.933C87.8876 165.933 73.7287 179.336 62.2273 194.255C56.4515 201.748 51.2802 209.712 46.6712 216.715C42.0386 223.753 38.0095 229.761 34.471 233.469L35.9177 234.85ZM105.225 167.933C116.377 167.933 124.343 165.077 130.489 160.743C136.61 156.428 140.858 150.691 144.638 145.069C148.453 139.397 151.746 133.926 156.032 129.819C160.256 125.771 165.413 123.09 172.94 123.09V121.09C164.838 121.09 159.199 124.014 154.649 128.375C150.161 132.675 146.703 138.415 142.978 143.953C139.219 149.543 135.14 155.017 129.337 159.109C123.558 163.183 116.003 165.933 105.225 165.933V167.933Z" fill="#0C0B0B"/>
<g filter="url(#filter6_d)">
<path d="M40.8609 232.24C40.8609 235.294 38.3855 237.769 35.332 237.769C32.2784 237.769 29.803 235.294 29.803 232.24C29.803 229.187 32.2784 226.711 35.332 226.711C38.3855 226.711 40.8609 229.187 40.8609 232.24Z" fill="#0C0B0B"/>
</g>
<g opacity="0.3" filter="url(#filter7_f)">
<path fill-rule="evenodd" clip-rule="evenodd" d="M24.1162 204.726H59.4523C61.6614 204.726 63.4523 206.516 63.4523 208.726V218.584C63.4523 220.793 61.6614 222.584 59.4523 222.584H46.2747L45.6266 223.107C45.4799 223.226 45.2705 223.226 45.1239 223.107L44.4757 222.584H24.1162C21.9071 222.584 20.1162 220.793 20.1162 218.584V208.726C20.1162 206.516 21.9071 204.726 24.1162 204.726Z" fill="#0C0B0B"/>
</g>
<path fill-rule="evenodd" clip-rule="evenodd" d="M14.012 195.322H56.012C58.2211 195.322 60.012 197.113 60.012 199.322V213.322C60.012 215.531 58.2211 217.322 56.012 217.322H42.012L35.2723 223.099C35.1225 223.227 34.9014 223.227 34.7516 223.099L28.012 217.322H14.012C11.8028 217.322 10.012 215.531 10.012 213.322V199.322C10.012 197.113 11.8028 195.322 14.012 195.322Z" fill="white"/>
<path d="M32.0721 206.066C32.0721 205.245 31.9508 204.61 31.7081 204.162C31.4748 203.714 31.1388 203.49 30.7001 203.49C30.2615 203.49 29.9255 203.714 29.6921 204.162C29.4681 204.61 29.3561 205.245 29.3561 206.066C29.3561 206.887 29.4681 207.527 29.6921 207.984C29.9255 208.432 30.2615 208.656 30.7001 208.656C31.1388 208.656 31.4748 208.432 31.7081 207.984C31.9508 207.527 32.0721 206.887 32.0721 206.066ZM34.4661 206.066C34.4661 206.785 34.3728 207.424 34.1861 207.984C33.9995 208.544 33.7381 209.015 33.4021 209.398C33.0755 209.771 32.6788 210.056 32.2121 210.252C31.7548 210.448 31.2555 210.546 30.7141 210.546C30.1635 210.546 29.6548 210.448 29.1881 210.252C28.7308 210.056 28.3341 209.771 27.9981 209.398C27.6715 209.015 27.4148 208.544 27.2281 207.984C27.0508 207.424 26.9621 206.785 26.9621 206.066C26.9621 205.347 27.0508 204.713 27.2281 204.162C27.4148 203.602 27.6715 203.135 27.9981 202.762C28.3341 202.379 28.7308 202.09 29.1881 201.894C29.6548 201.698 30.1635 201.6 30.7141 201.6C31.2555 201.6 31.7548 201.698 32.2121 201.894C32.6788 202.09 33.0755 202.379 33.4021 202.762C33.7381 203.135 33.9995 203.602 34.1861 204.162C34.3728 204.713 34.4661 205.347 34.4661 206.066ZM42.6104 210.308C42.517 210.336 42.3677 210.364 42.1624 210.392C41.9664 210.42 41.761 210.434 41.5464 210.434C41.341 210.434 41.1544 210.42 40.9864 210.392C40.8277 210.364 40.6924 210.308 40.5804 210.224C40.4684 210.14 40.3797 210.028 40.3144 209.888C40.2584 209.739 40.2304 209.547 40.2304 209.314V206.206C40.2304 205.823 40.1324 205.557 39.9364 205.408C39.7497 205.249 39.5164 205.17 39.2364 205.17C39.0497 205.17 38.8724 205.193 38.7044 205.24C38.5364 205.287 38.401 205.343 38.2984 205.408V210.308C38.205 210.336 38.0557 210.364 37.8504 210.392C37.6544 210.42 37.449 210.434 37.2344 210.434C37.029 210.434 36.8424 210.42 36.6744 210.392C36.5157 210.364 36.3804 210.308 36.2684 210.224C36.1564 210.14 36.0677 210.028 36.0024 209.888C35.9464 209.739 35.9184 209.547 35.9184 209.314V201.194C36.021 201.175 36.1704 201.152 36.3664 201.124C36.5717 201.087 36.777 201.068 36.9824 201.068C37.1877 201.068 37.3697 201.082 37.5284 201.11C37.6964 201.138 37.8364 201.194 37.9484 201.278C38.0604 201.362 38.1444 201.479 38.2004 201.628C38.2657 201.768 38.2984 201.955 38.2984 202.188V203.56C38.4197 203.513 38.6017 203.462 38.8444 203.406C39.0964 203.341 39.3717 203.308 39.6704 203.308C40.5944 203.308 41.313 203.541 41.8264 204.008C42.349 204.465 42.6104 205.151 42.6104 206.066V210.308Z" fill="#0C0B0B"/>
<g filter="url(#filter8_d)">
<path d="M245.582 189.478C245.582 192.531 243.107 195.006 240.053 195.006C237 195.006 234.524 192.531 234.524 189.478C234.524 186.424 237 183.949 240.053 183.949C243.107 183.949 245.582 186.424 245.582 189.478Z" fill="#0C0B0B"/>
</g>
<g opacity="0.3" filter="url(#filter9_f)">
<path fill-rule="evenodd" clip-rule="evenodd" d="M228.837 161.963H264.173C266.383 161.963 268.173 163.754 268.173 165.963V175.821C268.173 178.03 266.383 179.821 264.173 179.821H250.996L250.348 180.345C250.201 180.463 249.992 180.463 249.845 180.345L249.197 179.821H228.837C226.628 179.821 224.837 178.03 224.837 175.821V165.963C224.837 163.754 226.628 161.963 228.837 161.963Z" fill="#0C0B0B"/>
</g>
<path fill-rule="evenodd" clip-rule="evenodd" d="M218.733 152.559H260.733C262.942 152.559 264.733 154.35 264.733 156.559V170.559C264.733 172.768 262.942 174.559 260.733 174.559H246.733L239.993 180.336C239.844 180.464 239.623 180.464 239.473 180.336L232.733 174.559H218.733C216.524 174.559 214.733 172.768 214.733 170.559V156.559C214.733 154.35 216.524 152.559 218.733 152.559Z" fill="white"/>
<path d="M234.86 161.315L233.46 161.749C233.32 161.656 233.18 161.525 233.04 161.357C232.9 161.189 232.83 160.956 232.83 160.657C232.83 160.097 233.171 159.705 233.852 159.481L235.42 158.949H235.938C236.34 158.949 236.657 159.066 236.89 159.299C237.124 159.532 237.24 159.85 237.24 160.251V167.545C237.138 167.564 236.984 167.587 236.778 167.615C236.582 167.652 236.382 167.671 236.176 167.671C235.971 167.671 235.784 167.657 235.616 167.629C235.458 167.601 235.322 167.545 235.21 167.461C235.098 167.377 235.01 167.265 234.944 167.125C234.888 166.976 234.86 166.784 234.86 166.551V161.315ZM245.834 167.545C245.741 167.573 245.592 167.601 245.386 167.629C245.19 167.657 244.985 167.671 244.77 167.671C244.565 167.671 244.378 167.657 244.21 167.629C244.052 167.601 243.916 167.545 243.804 167.461C243.692 167.377 243.604 167.265 243.538 167.125C243.482 166.976 243.454 166.784 243.454 166.551V163.443C243.454 163.06 243.356 162.794 243.16 162.645C242.974 162.486 242.74 162.407 242.46 162.407C242.274 162.407 242.096 162.43 241.928 162.477C241.76 162.524 241.625 162.58 241.522 162.645V167.545C241.429 167.573 241.28 167.601 241.074 167.629C240.878 167.657 240.673 167.671 240.458 167.671C240.253 167.671 240.066 167.657 239.898 167.629C239.74 167.601 239.604 167.545 239.492 167.461C239.38 167.377 239.292 167.265 239.226 167.125C239.17 166.976 239.142 166.784 239.142 166.551V158.431C239.245 158.412 239.394 158.389 239.59 158.361C239.796 158.324 240.001 158.305 240.206 158.305C240.412 158.305 240.594 158.319 240.752 158.347C240.92 158.375 241.06 158.431 241.172 158.515C241.284 158.599 241.368 158.716 241.424 158.865C241.49 159.005 241.522 159.192 241.522 159.425V160.797C241.644 160.75 241.826 160.699 242.068 160.643C242.32 160.578 242.596 160.545 242.894 160.545C243.818 160.545 244.537 160.778 245.05 161.245C245.573 161.702 245.834 162.388 245.834 163.303V167.545Z" fill="#0C0B0B"/>
<g filter="url(#filter10_d)">
<path d="M366.381 98.0591C366.381 101.113 363.905 103.588 360.852 103.588C357.798 103.588 355.323 101.113 355.323 98.0591C355.323 95.0056 357.798 92.5302 360.852 92.5302C363.905 92.5302 366.381 95.0056 366.381 98.0591Z" fill="#0C0B0B"/>
</g>
<g opacity="0.3" filter="url(#filter11_f)">
<path fill-rule="evenodd" clip-rule="evenodd" d="M349.636 70.5445H384.972C387.181 70.5445 388.972 72.3354 388.972 74.5445V84.4027C388.972 86.6118 387.181 88.4027 384.972 88.4027H371.794L371.146 88.9262C371 89.0446 370.79 89.0446 370.644 88.9262L369.996 88.4027H349.636C347.427 88.4027 345.636 86.6118 345.636 84.4027V74.5445C345.636 72.3354 347.427 70.5445 349.636 70.5445Z" fill="#0C0B0B"/>
</g>
<path fill-rule="evenodd" clip-rule="evenodd" d="M339.532 61.1408H381.532C383.741 61.1408 385.532 62.9316 385.532 65.1408V79.1408C385.532 81.3499 383.741 83.1408 381.532 83.1408H367.532L360.792 88.9176C360.642 89.046 360.421 89.046 360.271 88.9176L353.532 83.1408H339.532C337.323 83.1408 335.532 81.3499 335.532 79.1408V65.1408C335.532 62.9316 337.323 61.1408 339.532 61.1408Z" fill="white"/>
<path d="M355.876 67.4188C356.949 67.4188 357.766 67.6428 358.326 68.0908C358.886 68.5294 359.166 69.1221 359.166 69.8688C359.166 70.3168 359.045 70.6994 358.802 71.0168C358.569 71.3248 358.289 71.5581 357.962 71.7168C358.158 71.7914 358.34 71.8848 358.508 71.9968C358.676 72.1088 358.825 72.2488 358.956 72.4168C359.087 72.5848 359.189 72.7808 359.264 73.0048C359.339 73.2288 359.376 73.4901 359.376 73.7888C359.376 74.1901 359.287 74.5494 359.11 74.8668C358.942 75.1841 358.704 75.4548 358.396 75.6788C358.088 75.9028 357.719 76.0708 357.29 76.1828C356.87 76.3041 356.408 76.3648 355.904 76.3648C354.933 76.3648 354.201 76.2294 353.706 75.9588C353.211 75.6881 352.964 75.3428 352.964 74.9228C352.964 74.6708 353.025 74.4561 353.146 74.2788C353.267 74.0921 353.417 73.9474 353.594 73.8448C353.781 73.9754 354.028 74.1154 354.336 74.2648C354.653 74.4048 355.064 74.4748 355.568 74.4748C356.044 74.4748 356.394 74.3908 356.618 74.2228C356.851 74.0548 356.968 73.8354 356.968 73.5648C356.968 73.2941 356.875 73.0888 356.688 72.9488C356.511 72.8088 356.198 72.7388 355.75 72.7388H354.434C354.369 72.6361 354.313 72.5101 354.266 72.3608C354.219 72.2114 354.196 72.0341 354.196 71.8288C354.196 71.6141 354.215 71.4321 354.252 71.2828C354.299 71.1241 354.359 70.9934 354.434 70.8908H355.75C356.422 70.8908 356.758 70.6341 356.758 70.1208C356.758 69.8781 356.651 69.6821 356.436 69.5328C356.221 69.3834 355.899 69.3088 355.47 69.3088C355.087 69.3088 354.751 69.3554 354.462 69.4488C354.173 69.5328 353.935 69.6401 353.748 69.7708C353.589 69.6588 353.459 69.5234 353.356 69.3648C353.253 69.1968 353.202 69.0008 353.202 68.7768C353.202 68.3101 353.445 67.9694 353.93 67.7548C354.415 67.5308 355.064 67.4188 355.876 67.4188ZM367.508 76.1268C367.415 76.1548 367.265 76.1828 367.06 76.2108C366.864 76.2388 366.659 76.2528 366.444 76.2528C366.239 76.2528 366.052 76.2388 365.884 76.2108C365.725 76.1828 365.59 76.1268 365.478 76.0428C365.366 75.9588 365.277 75.8468 365.212 75.7068C365.156 75.5574 365.128 75.3661 365.128 75.1328V72.0248C365.128 71.6421 365.03 71.3761 364.834 71.2268C364.647 71.0681 364.414 70.9888 364.134 70.9888C363.947 70.9888 363.77 71.0121 363.602 71.0588C363.434 71.1054 363.299 71.1614 363.196 71.2268V76.1268C363.103 76.1548 362.953 76.1828 362.748 76.2108C362.552 76.2388 362.347 76.2528 362.132 76.2528C361.927 76.2528 361.74 76.2388 361.572 76.2108C361.413 76.1828 361.278 76.1268 361.166 76.0428C361.054 75.9588 360.965 75.8468 360.9 75.7068C360.844 75.5574 360.816 75.3661 360.816 75.1328V67.0128C360.919 66.9941 361.068 66.9708 361.264 66.9428C361.469 66.9054 361.675 66.8868 361.88 66.8868C362.085 66.8868 362.267 66.9008 362.426 66.9288C362.594 66.9568 362.734 67.0128 362.846 67.0968C362.958 67.1808 363.042 67.2974 363.098 67.4468C363.163 67.5868 363.196 67.7734 363.196 68.0068V69.3788C363.317 69.3321 363.499 69.2808 363.742 69.2248C363.994 69.1594 364.269 69.1268 364.568 69.1268C365.492 69.1268 366.211 69.3601 366.724 69.8268C367.247 70.2841 367.508 70.9701 367.508 71.8848V76.1268Z" fill="#0C0B0B"/>
<g filter="url(#filter12_d)">
<path d="M432.007 144.277C432.007 147.33 429.531 149.806 426.478 149.806C423.424 149.806 420.949 147.33 420.949 144.277C420.949 141.223 423.424 138.748 426.478 138.748C429.531 138.748 432.007 141.223 432.007 144.277Z" fill="#0C0B0B"/>
</g>
<g opacity="0.3" filter="url(#filter13_f)">
<path fill-rule="evenodd" clip-rule="evenodd" d="M415.262 116.762H450.598C452.807 116.762 454.598 118.553 454.598 120.762V130.62C454.598 132.829 452.807 134.62 450.598 134.62H437.42L436.772 135.144C436.626 135.262 436.416 135.262 436.27 135.144L435.621 134.62H415.262C413.053 134.62 411.262 132.829 411.262 130.62V120.762C411.262 118.553 413.053 116.762 415.262 116.762Z" fill="#0C0B0B"/>
</g>
<path fill-rule="evenodd" clip-rule="evenodd" d="M405.158 107.358H447.158C449.367 107.358 451.158 109.149 451.158 111.358V125.358C451.158 127.567 449.367 129.358 447.158 129.358H433.158L426.418 135.135C426.268 135.264 426.047 135.264 425.897 135.135L419.158 129.358H405.158C402.949 129.358 401.158 127.567 401.158 125.358V111.358C401.158 109.149 402.949 107.358 405.158 107.358Z" fill="white"/>
<path d="M421.58 113.636C422.112 113.636 422.583 113.706 422.994 113.846C423.404 113.977 423.754 114.159 424.044 114.392C424.333 114.626 424.552 114.901 424.702 115.218C424.851 115.536 424.926 115.876 424.926 116.24C424.926 117.22 424.37 118.154 423.26 119.04L421.426 120.51H424.786C424.842 120.613 424.893 120.744 424.94 120.902C424.996 121.061 425.024 121.234 425.024 121.42C425.024 121.756 424.949 121.999 424.8 122.148C424.65 122.288 424.454 122.358 424.212 122.358H419.354C419.148 122.218 418.985 122.041 418.864 121.826C418.752 121.602 418.696 121.341 418.696 121.042C418.696 120.725 418.761 120.459 418.892 120.244C419.022 120.02 419.167 119.843 419.326 119.712L421.258 118.06C421.5 117.855 421.701 117.673 421.86 117.514C422.018 117.346 422.144 117.197 422.238 117.066C422.34 116.936 422.41 116.814 422.448 116.702C422.494 116.59 422.518 116.483 422.518 116.38C422.518 116.119 422.401 115.914 422.168 115.764C421.944 115.615 421.664 115.54 421.328 115.54C420.954 115.54 420.618 115.601 420.32 115.722C420.03 115.834 419.788 115.956 419.592 116.086C419.433 115.974 419.302 115.834 419.2 115.666C419.097 115.498 419.046 115.302 419.046 115.078C419.046 114.593 419.274 114.234 419.732 114C420.189 113.758 420.805 113.636 421.58 113.636ZM433.168 122.344C433.075 122.372 432.926 122.4 432.72 122.428C432.524 122.456 432.319 122.47 432.104 122.47C431.899 122.47 431.712 122.456 431.544 122.428C431.386 122.4 431.25 122.344 431.138 122.26C431.026 122.176 430.938 122.064 430.872 121.924C430.816 121.775 430.788 121.584 430.788 121.35V118.242C430.788 117.86 430.69 117.594 430.494 117.444C430.308 117.286 430.074 117.206 429.794 117.206C429.608 117.206 429.43 117.23 429.262 117.276C429.094 117.323 428.959 117.379 428.856 117.444V122.344C428.763 122.372 428.614 122.4 428.408 122.428C428.212 122.456 428.007 122.47 427.792 122.47C427.587 122.47 427.4 122.456 427.232 122.428C427.074 122.4 426.938 122.344 426.826 122.26C426.714 122.176 426.626 122.064 426.56 121.924C426.504 121.775 426.476 121.584 426.476 121.35V113.23C426.579 113.212 426.728 113.188 426.924 113.16C427.13 113.123 427.335 113.104 427.54 113.104C427.746 113.104 427.928 113.118 428.086 113.146C428.254 113.174 428.394 113.23 428.506 113.314C428.618 113.398 428.702 113.515 428.758 113.664C428.824 113.804 428.856 113.991 428.856 114.224V115.596C428.978 115.55 429.16 115.498 429.402 115.442C429.654 115.377 429.93 115.344 430.228 115.344C431.152 115.344 431.871 115.578 432.384 116.044C432.907 116.502 433.168 117.188 433.168 118.102V122.344Z" fill="#0C0B0B"/>
<defs>
<filter id="filter0_d" x="97.7872" y="159.67" width="15.0578" height="15.0578" filterUnits="userSpaceOnUse" color-interpolation-filters="sRGB">
<feFlood flood-opacity="0" result="BackgroundImageFix"/>
<feColorMatrix in="SourceAlpha" type="matrix" values="0 0 0 0 0 0 0 0 0 0 0 0 0 0 0 0 0 0 127 0"/>
<feOffset dy="1"/>
<feGaussianBlur stdDeviation="1"/>
<feColorMatrix type="matrix" values="0 0 0 0 0.215686 0 0 0 0 0.317647 0 0 0 0 1 0 0 0 0.2 0"/>
<feBlend mode="normal" in2="BackgroundImageFix" result="effect1_dropShadow"/>
<feBlend mode="normal" in="SourceGraphic" in2="effect1_dropShadow" result="shape"/>
</filter>
<filter id="filter1_f" x="70.1003" y="118.684" width="83.3361" height="58.4705" filterUnits="userSpaceOnUse" color-interpolation-filters="sRGB">
<feFlood flood-opacity="0" result="BackgroundImageFix"/>
<feBlend mode="normal" in="SourceGraphic" in2="BackgroundImageFix" result="shape"/>
<feGaussianBlur stdDeviation="10" result="effect1_foregroundBlur"/>
</filter>
<filter id="filter2_d" x="165.155" y="116.223" width="15.0578" height="15.0578" filterUnits="userSpaceOnUse" color-interpolation-filters="sRGB">
<feFlood flood-opacity="0" result="BackgroundImageFix"/>
<feColorMatrix in="SourceAlpha" type="matrix" values="0 0 0 0 0 0 0 0 0 0 0 0 0 0 0 0 0 0 127 0"/>
<feOffset dy="1"/>
<feGaussianBlur stdDeviation="1"/>
<feColorMatrix type="matrix" values="0 0 0 0 0.215686 0 0 0 0 0.317647 0 0 0 0 1 0 0 0 0.2 0"/>
<feBlend mode="normal" in2="BackgroundImageFix" result="effect1_dropShadow"/>
<feBlend mode="normal" in="SourceGraphic" in2="effect1_dropShadow" result="shape"/>
</filter>
<filter id="filter3_f" x="137.469" y="75.237" width="83.3361" height="58.4705" filterUnits="userSpaceOnUse" color-interpolation-filters="sRGB">
<feFlood flood-opacity="0" result="BackgroundImageFix"/>
<feBlend mode="normal" in="SourceGraphic" in2="BackgroundImageFix" result="shape"/>
<feGaussianBlur stdDeviation="10" result="effect1_foregroundBlur"/>
</filter>
<filter id="filter4_d" x="292.923" y="46.5148" width="15.0578" height="15.0578" filterUnits="userSpaceOnUse" color-interpolation-filters="sRGB">
<feFlood flood-opacity="0" result="BackgroundImageFix"/>
<feColorMatrix in="SourceAlpha" type="matrix" values="0 0 0 0 0 0 0 0 0 0 0 0 0 0 0 0 0 0 127 0"/>
<feOffset dy="1"/>
<feGaussianBlur stdDeviation="1"/>
<feColorMatrix type="matrix" values="0 0 0 0 0.215686 0 0 0 0 0.317647 0 0 0 0 1 0 0 0 0.2 0"/>
<feBlend mode="normal" in2="BackgroundImageFix" result="effect1_dropShadow"/>
<feBlend mode="normal" in="SourceGraphic" in2="effect1_dropShadow" result="shape"/>
</filter>
<filter id="filter5_f" x="265.237" y="5.52912" width="83.3361" height="58.4705" filterUnits="userSpaceOnUse" color-interpolation-filters="sRGB">
<feFlood flood-opacity="0" result="BackgroundImageFix"/>
<feBlend mode="normal" in="SourceGraphic" in2="BackgroundImageFix" result="shape"/>
<feGaussianBlur stdDeviation="10" result="effect1_foregroundBlur"/>
</filter>
<filter id="filter6_d" x="27.803" y="225.711" width="15.0578" height="15.0578" filterUnits="userSpaceOnUse" color-interpolation-filters="sRGB">
<feFlood flood-opacity="0" result="BackgroundImageFix"/>
<feColorMatrix in="SourceAlpha" type="matrix" values="0 0 0 0 0 0 0 0 0 0 0 0 0 0 0 0 0 0 127 0"/>
<feOffset dy="1"/>
<feGaussianBlur stdDeviation="1"/>
<feColorMatrix type="matrix" values="0 0 0 0 0.215686 0 0 0 0 0.317647 0 0 0 0 1 0 0 0 0.2 0"/>
<feBlend mode="normal" in2="BackgroundImageFix" result="effect1_dropShadow"/>
<feBlend mode="normal" in="SourceGraphic" in2="effect1_dropShadow" result="shape"/>
</filter>
<filter id="filter7_f" x="0.116211" y="184.726" width="83.3361" height="58.4705" filterUnits="userSpaceOnUse" color-interpolation-filters="sRGB">
<feFlood flood-opacity="0" result="BackgroundImageFix"/>
<feBlend mode="normal" in="SourceGraphic" in2="BackgroundImageFix" result="shape"/>
<feGaussianBlur stdDeviation="10" result="effect1_foregroundBlur"/>
</filter>
<filter id="filter8_d" x="232.524" y="182.949" width="15.0578" height="15.0578" filterUnits="userSpaceOnUse" color-interpolation-filters="sRGB">
<feFlood flood-opacity="0" result="BackgroundImageFix"/>
<feColorMatrix in="SourceAlpha" type="matrix" values="0 0 0 0 0 0 0 0 0 0 0 0 0 0 0 0 0 0 127 0"/>
<feOffset dy="1"/>
<feGaussianBlur stdDeviation="1"/>
<feColorMatrix type="matrix" values="0 0 0 0 0.215686 0 0 0 0 0.317647 0 0 0 0 1 0 0 0 0.2 0"/>
<feBlend mode="normal" in2="BackgroundImageFix" result="effect1_dropShadow"/>
<feBlend mode="normal" in="SourceGraphic" in2="effect1_dropShadow" result="shape"/>
</filter>
<filter id="filter9_f" x="204.837" y="141.963" width="83.3361" height="58.4705" filterUnits="userSpaceOnUse" color-interpolation-filters="sRGB">
<feFlood flood-opacity="0" result="BackgroundImageFix"/>
<feBlend mode="normal" in="SourceGraphic" in2="BackgroundImageFix" result="shape"/>
<feGaussianBlur stdDeviation="10" result="effect1_foregroundBlur"/>
</filter>
<filter id="filter10_d" x="353.323" y="91.5302" width="15.0578" height="15.0578" filterUnits="userSpaceOnUse" color-interpolation-filters="sRGB">
<feFlood flood-opacity="0" result="BackgroundImageFix"/>
<feColorMatrix in="SourceAlpha" type="matrix" values="0 0 0 0 0 0 0 0 0 0 0 0 0 0 0 0 0 0 127 0"/>
<feOffset dy="1"/>
<feGaussianBlur stdDeviation="1"/>
<feColorMatrix type="matrix" values="0 0 0 0 0.215686 0 0 0 0 0.317647 0 0 0 0 1 0 0 0 0.2 0"/>
<feBlend mode="normal" in2="BackgroundImageFix" result="effect1_dropShadow"/>
<feBlend mode="normal" in="SourceGraphic" in2="effect1_dropShadow" result="shape"/>
</filter>
<filter id="filter11_f" x="325.636" y="50.5445" width="83.3361" height="58.4705" filterUnits="userSpaceOnUse" color-interpolation-filters="sRGB">
<feFlood flood-opacity="0" result="BackgroundImageFix"/>
<feBlend mode="normal" in="SourceGraphic" in2="BackgroundImageFix" result="shape"/>
<feGaussianBlur stdDeviation="10" result="effect1_foregroundBlur"/>
</filter>
<filter id="filter12_d" x="418.949" y="137.748" width="15.0578" height="15.0578" filterUnits="userSpaceOnUse" color-interpolation-filters="sRGB">
<feFlood flood-opacity="0" result="BackgroundImageFix"/>
<feColorMatrix in="SourceAlpha" type="matrix" values="0 0 0 0 0 0 0 0 0 0 0 0 0 0 0 0 0 0 127 0"/>
<feOffset dy="1"/>
<feGaussianBlur stdDeviation="1"/>
<feColorMatrix type="matrix" values="0 0 0 0 0.215686 0 0 0 0 0.317647 0 0 0 0 1 0 0 0 0.2 0"/>
<feBlend mode="normal" in2="BackgroundImageFix" result="effect1_dropShadow"/>
<feBlend mode="normal" in="SourceGraphic" in2="effect1_dropShadow" result="shape"/>
</filter>
<filter id="filter13_f" x="391.262" y="96.7621" width="83.3361" height="58.4705" filterUnits="userSpaceOnUse" color-interpolation-filters="sRGB">
<feFlood flood-opacity="0" result="BackgroundImageFix"/>
<feBlend mode="normal" in="SourceGraphic" in2="BackgroundImageFix" result="shape"/>
<feGaussianBlur stdDeviation="10" result="effect1_foregroundBlur"/>
</filter>
</defs>
</svg>
